<svg width="303" height="307" viewBox="0 0 303 307" fill="none" xmlns="http://www.w3.org/2000/svg">
<g filter="url(#filter0_d_19_764)">
<path d="M277.134 161.634C276.64 162.739 275.945 163.572 275.048 164.132C274.167 164.713 273.176 164.954 272.074 164.856C270.878 164.75 269.876 164.266 269.068 163.403C268.259 162.54 267.682 161.415 267.334 160.029C266.985 158.661 266.881 157.183 267.022 155.594C267.142 154.249 267.43 152.919 267.886 151.604C268.34 150.307 268.966 149.092 269.764 147.957L272.89 149.648C272.29 150.461 271.805 151.368 271.433 152.371C271.078 153.394 270.857 154.401 270.769 155.391C270.649 156.736 270.793 157.869 271.201 158.791C271.607 159.731 272.249 160.24 273.127 160.318C273.856 160.382 274.434 160.123 274.863 159.54C275.29 158.975 275.55 158.17 275.643 157.124L276.069 152.331L279.488 152.635L279.092 157.091C279.01 158.007 279.134 158.733 279.463 159.271C279.79 159.827 280.28 160.135 280.934 160.193C281.7 160.261 282.331 159.94 282.828 159.231C283.322 158.541 283.621 157.616 283.724 156.458C283.8 155.599 283.758 154.7 283.596 153.763C283.454 152.828 283.185 151.928 282.791 151.065L286.445 150.006C287.325 152.174 287.658 154.463 287.444 156.874C287.307 158.406 286.958 159.796 286.395 161.045C285.832 162.295 285.086 163.264 284.159 163.954C283.231 164.643 282.198 164.937 281.058 164.836C280.124 164.753 279.315 164.427 278.631 163.858C277.947 163.288 277.448 162.547 277.134 161.634Z" fill="#F6FFF3" fill-opacity="0.7"/>
<path d="M266.056 185.529L268.682 176.77L265.14 173.888L266.481 169.414L282.826 183.476L281.534 187.788L260.14 190.571L261.513 185.989L266.056 185.529ZM269.783 185.148L277.903 184.321L271.577 179.165L269.783 185.148Z" fill="#F6FFF3" fill-opacity="0.7"/>
<path d="M261.353 206.652L262.865 203.888L255.904 200.082L258.077 196.107L275.358 205.555L273.184 209.529L266.198 205.71L264.632 208.573L269.134 216.935L266.825 221.156L261.573 210.941L249.45 211.881L251.934 207.339L261.353 206.652Z" fill="#F6FFF3" fill-opacity="0.7"/>
<path d="M255.6 236.552C254.474 237.884 253.277 238.85 252.01 239.448C250.73 240.061 249.458 240.288 248.193 240.127C246.928 239.967 245.737 239.415 244.62 238.471C243.517 237.538 242.774 236.456 242.391 235.224C242.023 234.004 242.034 232.712 242.426 231.348C242.82 230.011 243.58 228.676 244.706 227.344L247.267 224.315L243.12 220.81L246.063 217.329L261.105 230.042L255.6 236.552ZM247.706 229.548C246.822 230.594 246.372 231.576 246.356 232.496C246.354 233.428 246.768 234.245 247.599 234.947C248.444 235.661 249.319 235.934 250.223 235.765C251.142 235.608 252.043 235.007 252.927 233.962L255.325 231.126L250.104 226.712L247.706 229.548Z" fill="#F6FFF3" fill-opacity="0.7"/>
<path d="M231.313 251.61C229.387 253.043 227.593 253.712 225.931 253.616C224.255 253.531 222.789 252.646 221.535 250.961C220.202 249.17 219.754 247.376 220.192 245.577C220.626 243.804 221.874 242.151 223.936 240.617L231.068 235.309L242.829 251.107L239.195 253.811L235.331 248.62L231.313 251.61ZM226.155 243.174C225.207 243.879 224.643 244.661 224.464 245.519C224.269 246.389 224.503 247.267 225.163 248.155C226.384 249.795 228.003 249.865 230.019 248.364L233.315 245.912L229.451 240.721L226.155 243.174ZM227.187 262.747L223.553 265.451L211.792 249.653L215.426 246.949L227.187 262.747Z" fill="#F6FFF3" fill-opacity="0.7"/>
<path d="M197.363 274.429L203.13 271.888L196.685 257.265L200.804 255.45L207.249 270.073L212.991 267.543L214.489 270.942L198.86 277.828L197.363 274.429Z" fill="#F6FFF3" fill-opacity="0.7"/>
<path d="M178.597 277.309C176.241 277.768 174.334 277.595 172.878 276.789C171.403 275.987 170.465 274.555 170.063 272.493C169.637 270.302 170.01 268.49 171.183 267.058C172.342 265.647 174.182 264.697 176.705 264.206L185.432 262.507L189.196 281.839L184.75 282.704L183.513 276.352L178.597 277.309ZM177.599 267.471C176.439 267.697 175.592 268.158 175.059 268.854C174.507 269.554 174.337 270.447 174.549 271.533C174.94 273.54 176.369 274.303 178.836 273.823L182.868 273.038L181.631 266.687L177.599 267.471ZM170.058 285.564L165.611 286.43L161.847 267.098L166.293 266.233L170.058 285.564Z" fill="#F6FFF3" fill-opacity="0.7"/>
<path d="M152.37 287.576L147.847 287.332L148.54 274.521L138.464 286.824L134.193 286.593L135.257 266.927L139.752 267.17L139.061 279.953L149.136 267.678L153.434 267.91L152.37 287.576ZM143.228 288.35C146.824 288.544 148.563 290.075 148.445 292.943L145.327 292.774C145.363 291.405 144.623 290.679 143.106 290.597C142.357 290.557 141.776 290.694 141.365 291.01C140.952 291.345 140.718 291.849 140.663 292.522L137.545 292.354C137.639 290.95 138.156 289.907 139.095 289.225C140.033 288.543 141.411 288.252 143.228 288.35Z" fill="#F6FFF3" fill-opacity="0.7"/>
<path d="M106.11 268.238L109.056 269.356L111.872 261.938L116.107 263.545L109.118 281.958L104.882 280.351L107.708 272.907L104.657 271.749L96.9908 277.356L92.4925 275.65L101.891 269.045L99.2976 257.167L104.138 259.003L106.11 268.238Z" fill="#F6FFF3" fill-opacity="0.7"/>
<path d="M68.1872 261.853L78.8221 245.276L82.6114 247.706L73.982 261.157L79.666 264.802L82.0026 261.421C83.5907 259.119 85.0057 257.33 86.2476 256.054C87.4794 254.794 88.7038 253.998 89.9207 253.664C91.1117 253.336 92.3388 253.577 93.6019 254.387C94.1229 254.721 94.6988 255.213 95.3295 255.862L93.0112 258.955C92.8465 258.76 92.6378 258.582 92.3852 258.42C91.4694 257.832 90.4856 257.959 89.4337 258.8C88.3717 259.656 87.054 261.206 85.4805 263.451L80.9289 270.024L68.1872 261.853Z" fill="#F6FFF3" fill-opacity="0.7"/>
<path d="M45.5575 241.933L62.4719 236.717C64.0998 236.215 65.5912 236.091 66.9461 236.346C68.2876 236.589 69.4326 237.177 70.3812 238.112C71.1161 238.836 71.7196 239.747 72.1918 240.844L68.9808 242.538C68.5908 241.812 68.2088 241.264 67.8347 240.896C67.4339 240.501 66.981 240.239 66.476 240.11C65.9578 239.994 65.3611 240.012 64.6857 240.162L64.4074 240.204L59.7863 255.954L56.3193 252.537L60.0183 241.33L48.7439 245.073L45.5575 241.933Z" fill="#F6FFF3" fill-opacity="0.7"/>
<path d="M39.0464 234.579L30.1704 221.391L33.1818 219.365L39.5285 228.795L42.89 226.533L39.8423 222.005C38.5122 220.029 37.914 218.25 38.0476 216.668C38.1707 215.071 39.0104 213.748 40.5666 212.701C42.2007 211.602 43.8565 211.324 45.5342 211.869C47.2118 212.413 48.7576 213.735 50.1715 215.836L55.3871 223.585L39.0464 234.579ZM47.5116 217.931C46.8623 216.966 46.178 216.352 45.4589 216.09C44.7242 215.838 43.9912 215.959 43.2597 216.451C41.828 217.414 41.7824 218.891 43.123 220.883L45.6679 224.664L50.0566 221.712L47.5116 217.931Z" fill="#F6FFF3" fill-opacity="0.7"/>
<path d="M32.408 176.134L21.0488 179.287L31.9454 182.302L32.4828 184.255L24.8781 192.357L36.0277 189.291L37.1621 193.414L18.1725 198.637L17.1724 195.002L27.0177 184.649L13.2914 180.895L12.2913 177.26L31.2736 172.011L32.408 176.134Z" fill="#F6FFF3" fill-opacity="0.7"/>
<path d="M25.0129 150.936L25.3305 160.074L29.6089 161.671L29.7711 166.338L9.78331 158.249L9.62695 153.75L29.0039 144.266L29.1701 149.046L25.0129 150.936ZM21.6042 152.49L14.1769 155.873L21.8211 158.732L21.6042 152.49Z" fill="#F6FFF3" fill-opacity="0.7"/>
<path d="M22.7304 128.852L22.1755 131.953L29.9857 133.35L29.188 137.809L9.80084 134.342L10.5986 129.883L18.4365 131.285L19.0113 128.072L12.0851 121.574L12.9324 116.838L21.1589 124.855L32.3542 120.112L31.4425 125.208L22.7304 128.852Z" fill="#F6FFF3" fill-opacity="0.7"/>
<path d="M37.4487 105.647C36.7084 107.513 35.6363 109.045 34.2323 110.243C32.8179 111.418 31.2229 112.157 29.4472 112.462C27.6611 112.742 25.8614 112.522 24.0481 111.803C22.2349 111.084 20.7829 110.013 19.6922 108.592C18.591 107.146 17.9369 105.515 17.7299 103.697C17.5124 101.855 17.7772 99.9929 18.5244 98.11C19.154 96.5234 20.0003 95.2045 21.0633 94.1531C22.1331 93.0843 23.3641 92.3215 24.7562 91.8648L26.1875 95.5804C24.2666 96.2511 22.943 97.5018 22.2165 99.3324C21.7668 100.466 21.6183 101.577 21.7711 102.667C21.9065 103.75 22.3184 104.72 23.007 105.579C23.7024 106.419 24.6168 107.065 25.7501 107.514C26.8834 107.964 27.9915 108.121 29.0744 107.985C30.1642 107.832 31.1384 107.412 31.9969 106.723C32.8379 106.028 33.4833 105.113 33.933 103.98C34.6594 102.15 34.5447 100.328 33.5888 98.5164L37.1788 96.7926C37.8964 98.0862 38.2782 99.4887 38.3241 101C38.3701 102.512 38.0783 104.061 37.4487 105.647Z" fill="#F6FFF3" fill-opacity="0.7"/>
<path d="M26.1864 81.274L28.7018 77.5068L39.3728 84.6295L33.9203 69.6918L36.2952 66.1352L52.676 77.0692L50.1761 80.8129L39.5286 73.7059L44.9577 88.628L42.5672 92.2079L26.1864 81.274Z" fill="#F6FFF3" fill-opacity="0.7"/>
<path d="M69.9665 58.5526L61.9175 49.9394L64.2831 60.9935L62.7995 62.3728L52.0974 59.3761L59.9725 67.8437L56.8404 70.7555L43.4278 56.3338L46.189 53.7668L59.9228 57.7098L56.9042 43.8053L59.6655 41.2383L73.0986 55.6408L69.9665 58.5526Z" fill="#F6FFF3" fill-opacity="0.7"/>
<path d="M88.9322 40.2089L80.9746 44.7132L81.5361 49.2449L77.4716 51.5456L75.4063 30.0836L79.3239 27.8661L96.6922 40.6658L92.5298 43.0219L88.9322 40.2089ZM85.9782 37.9043L79.5449 32.8814L80.5426 40.9812L85.9782 37.9043Z" fill="#F6FFF3" fill-opacity="0.7"/>
<path d="M125.412 27.1055L116.45 28.9212L115.579 33.4038L111.002 34.3312L115.693 13.2859L120.105 12.392L132.648 29.9456L127.96 30.8953L125.412 27.1055ZM123.319 23.9988L118.76 17.2289L117.197 25.239L123.319 23.9988Z" fill="#F6FFF3" fill-opacity="0.7"/>
<path d="M156.048 9.61301L155.744 29.3054L151.243 29.2359L151.49 13.2569L144.738 13.1527L144.534 17.2578C144.397 20.0508 144.137 22.3166 143.754 24.0553C143.371 25.7752 142.75 27.0975 141.892 28.0222C141.052 28.9285 139.882 29.37 138.382 29.3468C137.763 29.3373 137.015 29.2225 136.136 29.0026L136.477 25.1529C136.72 25.2317 136.991 25.2734 137.291 25.278C138.379 25.2948 139.148 24.6689 139.599 23.4002C140.051 22.1128 140.354 20.1009 140.509 17.3644L140.913 9.37931L156.048 9.61301Z" fill="#F6FFF3" fill-opacity="0.7"/>
<path d="M178.755 28.7409L169.86 26.6189L167.184 30.3191L162.641 29.2352L175.751 12.1157L180.13 13.1603L184.124 34.3606L179.472 33.2507L178.755 28.7409ZM178.162 25.0418L176.875 16.9828L172.087 23.5923L178.162 25.0418Z" fill="#F6FFF3" fill-opacity="0.7"/>
<path d="M200.115 32.1999L197.27 30.8441L193.855 38.0059L189.766 36.0569L198.242 18.2796L202.332 20.2285L198.905 27.4156L201.851 28.8198L209.951 23.8601L214.294 25.93L204.385 31.7419L205.996 43.7921L201.322 41.5648L200.115 32.1999Z" fill="#F6FFF3" fill-opacity="0.7"/>
<path d="M243.781 46.9792L231.341 62.2476L211.183 45.8303L223.623 30.5619L227.136 33.4225L217.041 45.8117L221.863 49.7383L231.957 37.3492L235.469 40.2098L225.375 52.5989L230.174 56.5078L240.269 44.1186L243.781 46.9792Z" fill="#F6FFF3" fill-opacity="0.7"/>
<path d="M253.044 56.3442L255.736 59.9875L245.415 67.6092L261.32 67.5457L263.861 70.9854L248.018 82.6854L245.343 79.0646L255.641 71.4597L239.759 71.5064L237.201 68.0441L253.044 56.3442Z" fill="#F6FFF3" fill-opacity="0.7"/>
<path d="M277.979 98.048L259.956 105.989L258.118 101.818L265.508 98.5622L261.899 90.3751L254.51 93.6308L252.671 89.4601L270.694 81.5194L272.533 85.6901L265.426 88.821L269.035 97.0081L276.141 93.8772L277.979 98.048Z" fill="#F6FFF3" fill-opacity="0.7"/>
<path d="M269.717 125.844L267.935 116.875L263.455 115.986L262.545 111.405L283.573 116.178L284.451 120.594L266.85 133.068L265.917 128.377L269.717 125.844ZM272.831 123.762L279.619 119.23L271.614 117.636L272.831 123.762Z" fill="#F6FFF3" fill-opacity="0.7"/>
</g>
<defs>
<filter id="filter0_d_19_764" x="9.32108" y="9.31024" width="292.771" height="296.829" filterUnits="userSpaceOnUse" color-interpolation-filters="sRGB">
<feFlood flood-opacity="0" result="BackgroundImageFix"/>
<feColorMatrix in="SourceAlpha" type="matrix" values="0 0 0 0 0 0 0 0 0 0 0 0 0 0 0 0 0 0 127 0" result="hardAlpha"/>
<feOffset dx="10" dy="9"/>
<feGaussianBlur stdDeviation="2"/>
<feComposite in2="hardAlpha" operator="out"/>
<feColorMatrix type="matrix" values="0 0 0 0 0 0 0 0 0 0 0 0 0 0 0 0 0 0 0.15 0"/>
<feBlend mode="normal" in2="BackgroundImageFix" result="effect1_dropShadow_19_764"/>
<feBlend mode="normal" in="SourceGraphic" in2="effect1_dropShadow_19_764" result="shape"/>
</filter>
</defs>
</svg>
