<svg width="32" height="32" viewBox="0 0 32 32" fill="none" xmlns="http://www.w3.org/2000/svg">
<path fill-rule="evenodd" clip-rule="evenodd" d="M8.43003 0.144928H16.0574V1.94493H8.64038C8.62676 1.94862 8.61164 1.95279 8.5951 1.95746C8.49994 1.98435 8.35902 2.02748 8.18778 2.08972C7.84236 2.21527 7.38905 2.41302 6.94269 2.70168C6.0491 3.27955 5.27925 4.14718 5.27925 5.49104C5.27925 6.09354 5.60261 6.88949 6.24911 7.8242C6.8787 8.73444 7.73494 9.66329 8.61685 10.5083C9.49475 11.3495 10.3761 12.0867 11.0398 12.6148C11.371 12.8783 11.6464 13.0885 11.8381 13.2321C11.9339 13.3038 12.0087 13.3589 12.0589 13.3956L12.1153 13.4366L12.1289 13.4464L12.1319 13.4485L12.5091 13.718V23.4551H10.7091V14.6353C10.5092 14.4849 10.2384 14.2774 9.91912 14.0234C9.22725 13.4729 8.30111 12.6987 7.37153 11.808C6.44597 10.9211 5.49474 9.8978 4.76872 8.84813C4.05962 7.82293 3.47925 6.65126 3.47925 5.49104C3.47925 3.30944 4.78411 1.95402 5.96523 1.1902C6.55622 0.808009 7.14027 0.555251 7.57287 0.398009C7.79064 0.318856 7.97389 0.262515 8.10565 0.225284C8.17163 0.206641 8.22499 0.192709 8.26363 0.18304C8.28296 0.178204 8.29864 0.174428 8.3104 0.171657L8.32508 0.168245L8.33017 0.16709L8.33214 0.166648C8.33252 0.166564 8.33373 0.166295 8.52867 1.04493L8.33373 0.166295L8.43003 0.144928Z" fill="#27C100"/>
<path fill-rule="evenodd" clip-rule="evenodd" d="M16.0574 0.100006H23.6205L23.7211 0.123426L23.5171 1.00001C23.7211 0.123426 23.7207 0.123338 23.7211 0.123426L23.7227 0.123794L23.7247 0.124255L23.7297 0.12546L23.7444 0.129021C23.7561 0.131912 23.7717 0.13585 23.791 0.140887C23.8296 0.150957 23.8829 0.165447 23.9488 0.184781C24.0804 0.223393 24.2635 0.281652 24.481 0.363072C24.9132 0.524839 25.4964 0.783567 26.0863 1.17146C27.2642 1.94596 28.5666 3.31165 28.5666 5.49102C28.5666 6.65167 27.9851 7.82355 27.2749 8.84867C26.5477 9.89833 25.595 10.9217 24.668 11.8085C23.737 12.6991 22.8094 13.4733 22.1165 14.0238C21.7966 14.2778 21.5255 14.4853 21.3252 14.6357V23.4551H19.5252V13.7176L19.9024 13.4485L19.906 13.446L19.9196 13.4362L19.9761 13.3952C20.0264 13.3585 20.1013 13.3034 20.1973 13.2316C20.3892 13.0881 20.6651 12.8779 20.9969 12.6144C21.6617 12.0863 22.5444 11.349 23.4237 10.5078C24.3071 9.66275 25.1647 8.73388 25.7953 7.82364C26.4429 6.88885 26.7666 6.0931 26.7666 5.49102C26.7666 4.14495 25.9942 3.26513 25.0974 2.67548C24.65 2.3813 24.1958 2.1783 23.85 2.04885C23.6785 1.98466 23.5374 1.93994 23.4421 1.91198C23.427 1.90757 23.4132 1.90358 23.4005 1.90001H16.0574V0.100006Z" fill="#27C100"/>
<path fill-rule="evenodd" clip-rule="evenodd" d="M7.53917 11.4291C5.99692 11.7075 4.60096 12.4883 3.5778 13.639C2.55925 14.7845 1.96965 16.2292 1.89998 17.7379V30.1H16.0574V31.9H0.0999756V17.6984L0.100818 17.6789C0.184558 15.745 0.937742 13.8992 2.23266 12.4429C3.52721 10.987 5.28601 10.0068 7.2194 9.65775L7.53917 11.4291Z" fill="#27C100"/>
<path fill-rule="evenodd" clip-rule="evenodd" d="M24.7805 9.65775C26.7139 10.0068 28.4727 10.987 29.7672 12.4429C31.0621 13.8992 31.8153 15.745 31.8991 17.6789L31.8999 17.6984V31.9H16.0574V30.1H30.0999V17.7379C30.0302 16.2292 29.4406 14.7845 28.4221 13.639C27.3989 12.4883 26.003 11.7075 24.4607 11.4291L24.7805 9.65775Z" fill="#27C100"/>
</svg>
