<svg width="32" height="32" viewBox="0 0 32 32" fill="none" xmlns="http://www.w3.org/2000/svg">
<path d="M7.51636 30.9169H14.017V29.1415C14.017 29.1415 14.444 25.7671 7.51636 25.7671" stroke="#27C100" stroke-width="1.8" stroke-miterlimit="10"/>
<path d="M7.51647 30.9169H1.00513V29.1415C1.00513 29.1415 0.578155 25.7255 7.51647 25.7255" stroke="#27C100" stroke-width="1.8" stroke-miterlimit="10"/>
<path d="M7.31363 22.2161C8.76387 22.2161 9.93952 21.0726 9.93952 19.662C9.93952 18.2513 8.76387 17.1078 7.31363 17.1078C5.86339 17.1078 4.68774 18.2513 4.68774 19.662C4.68774 21.0726 5.86339 22.2161 7.31363 22.2161Z" stroke="#27C100" stroke-width="1.8" stroke-miterlimit="10"/>
<path d="M24.1365 31H30.6371V29.1415C30.6371 29.1415 31.0641 25.7671 24.1365 25.7671" stroke="#27C100" stroke-width="1.8" stroke-miterlimit="10"/>
<path d="M24.1364 31H17.6464V29.1415C17.6464 29.1415 17.2194 25.7671 24.1364 25.7671" stroke="#27C100" stroke-width="1.8" stroke-miterlimit="10"/>
<path d="M23.9442 22.2992C25.3945 22.2992 26.5701 21.1557 26.5701 19.745C26.5701 18.3344 25.3945 17.1909 23.9442 17.1909C22.494 17.1909 21.3184 18.3344 21.3184 19.745C21.3184 21.1557 22.494 22.2992 23.9442 22.2992Z" stroke="#27C100" stroke-width="1.8" stroke-miterlimit="10"/>
<path d="M25.2252 13.7853V11.0027C25.2252 11.0027 31 11.7606 31 6.90147C31 2.04231 26.4101 2.36418 25.2252 2.36418C24.0404 2.36418 18.3723 2.14614 18.3723 6.29927C18.3723 10.4524 25.2252 13.7853 25.2252 13.7853Z" stroke="#27C100" stroke-width="1.8" stroke-miterlimit="10"/>
<path d="M7.51658 12.4355V9.65291C7.51658 9.65291 1.75244 10.4109 1.75244 5.5517C1.75244 0.692538 6.31038 1.00402 7.51658 1.00402C8.72278 1.00402 14.3482 0.785983 14.3482 4.92873C14.3482 9.07148 7.51658 12.4355 7.51658 12.4355Z" stroke="#27C100" stroke-width="1.8" stroke-miterlimit="10"/>
</svg>
