<svg width="60" height="60" viewBox="0 0 60 60" fill="none" xmlns="http://www.w3.org/2000/svg">
<path d="M30 60C13.4315 60 1.77912e-06 46.5685 2.50336e-06 30C3.22759e-06 13.4315 13.4315 -2.03558e-06 30 -1.31134e-06C46.5685 -5.87108e-07 60 13.4315 60 30C60 46.5685 46.5685 60 30 60Z" fill="#FF9846"/>
<g clip-path="url(#clip0_706_315)">
<path d="M30 11C22.8889 11 17.1035 16.7853 17.1035 23.8964C17.1035 26.754 18.7859 31.0999 22.3981 37.5731C24.863 41.9899 27.3166 45.7206 27.4201 45.8778L29.1935 48.5658C29.3723 48.8369 29.6752 49 30 49C30.3248 49 30.6278 48.8369 30.8066 48.5658L32.5799 45.8779C32.6824 45.7226 35.1181 42.0241 37.6019 37.5731C41.2141 31.1002 42.8965 26.7543 42.8965 23.8964C42.8965 16.7853 37.1111 11 30 11ZM35.9144 36.6313C33.4651 41.0201 31.0679 44.6605 30.9669 44.8135L30 46.2791L29.0335 44.8139C28.9319 44.6597 26.5163 40.9866 24.0856 36.6313C20.735 30.6268 19.0361 26.3422 19.0361 23.8964C19.0361 17.8509 23.9544 12.9325 30 12.9325C36.0456 12.9325 40.964 17.8509 40.964 23.8964C40.964 26.3425 39.2651 30.627 35.9144 36.6313Z" fill="#F2F2F2"/>
<path d="M30 16.6655C26.0572 16.6655 22.8496 19.8732 22.8496 23.8159C22.8496 27.7586 26.0572 30.9663 30 30.9663C33.9428 30.9663 37.1504 27.7586 37.1504 23.8159C37.1504 19.8732 33.9428 16.6655 30 16.6655ZM30 29.0337C27.1228 29.0337 24.7821 26.693 24.7821 23.8159C24.7821 20.9387 27.1228 18.598 30 18.598C32.8772 18.598 35.2178 20.9387 35.2178 23.8159C35.2178 26.693 32.8772 29.0337 30 29.0337Z" fill="#F2F2F2"/>
</g>
<defs>
<clipPath id="clip0_706_315">
<rect width="38" height="38" fill="white" transform="translate(11 11)"/>
</clipPath>
</defs>
</svg>
