<svg width="32" height="29" viewBox="0 0 32 29" fill="none" xmlns="http://www.w3.org/2000/svg">
<path d="M16.0001 20.4461H12.2208C11.9102 20.451 11.6041 20.5227 11.3227 20.6563C11.0413 20.7899 10.791 20.9825 10.5881 21.2214C10.3853 21.4602 10.2346 21.74 10.1459 22.0422C10.0572 22.3445 10.0325 22.6623 10.0734 22.975C10.0734 25.5474 11.4585 28 16.0323 28" stroke="#27C100" stroke-width="1.8" stroke-miterlimit="10"/>
<path d="M16 20.4461H19.7901C20.1035 20.442 20.4139 20.5076 20.6997 20.6383C20.9854 20.769 21.2396 20.9616 21.4442 21.2026C21.6488 21.4436 21.799 21.7271 21.8842 22.0333C21.9694 22.3395 21.9876 22.6609 21.9374 22.975C21.9374 25.5475 20.5631 28 15.9785 28" stroke="#27C100" stroke-width="1.8" stroke-miterlimit="10"/>
<path d="M16 16.0315C17.8679 16.0315 19.3821 14.4942 19.3821 12.5979C19.3821 10.7016 17.8679 9.16431 16 9.16431C14.1321 9.16431 12.6179 10.7016 12.6179 12.5979C12.6179 14.4942 14.1321 16.0315 16 16.0315Z" stroke="#27C100" stroke-width="1.8" stroke-miterlimit="10"/>
<path d="M24.8579 7.86718C26.7258 7.86718 28.24 6.32991 28.24 4.43359C28.24 2.53727 26.7258 1 24.8579 1C22.99 1 21.4758 2.53727 21.4758 4.43359C21.4758 6.32991 22.99 7.86718 24.8579 7.86718Z" stroke="#27C100" stroke-width="1.8" stroke-miterlimit="10"/>
<path d="M7.14209 7.86718C9.00996 7.86718 10.5242 6.32991 10.5242 4.43359C10.5242 2.53727 9.00996 1 7.14209 1C5.27422 1 3.76001 2.53727 3.76001 4.43359C3.76001 6.32991 5.27422 7.86718 7.14209 7.86718Z" stroke="#27C100" stroke-width="1.8" stroke-miterlimit="10"/>
<path d="M22.4421 12.2382H28.8842C29.1508 12.2103 29.4203 12.2403 29.6746 12.3262C29.9289 12.4121 30.1624 12.552 30.3594 12.7365C30.5564 12.9211 30.7124 13.1461 30.8172 13.3965C30.922 13.647 30.9731 13.9173 30.9671 14.1893C30.9671 16.2713 31.869 19.138 24.2352 19.6395" stroke="#27C100" stroke-width="1.8" stroke-miterlimit="10"/>
<path d="M9.55794 12.2382H3.11588C2.84924 12.2103 2.57981 12.2403 2.32547 12.3262C2.07114 12.4121 1.83772 12.552 1.64072 12.7365C1.44371 12.9211 1.28764 13.1461 1.18285 13.3965C1.07806 13.647 1.02696 13.9173 1.03295 14.1893C1.03295 16.2713 0.131057 19.138 7.7649 19.6395" stroke="#27C100" stroke-width="1.8" stroke-miterlimit="10"/>
</svg>
