<svg width="32" height="32" viewBox="0 0 32 32" fill="none" xmlns="http://www.w3.org/2000/svg">
<path d="M21.3715 12.7237C21.3836 12.6058 21.2911 12.5033 21.1725 12.5033H17.3486V9.85009C17.3486 8.85367 18.009 8.62137 18.4742 8.62137C18.8565 8.62137 20.5467 8.62137 21.1301 8.62137C21.2406 8.62137 21.329 8.53182 21.329 8.42137V4.44015C21.329 4.33 21.2399 4.24058 21.1298 4.24015L17.3973 4.22559C13.0327 4.22559 12.0395 7.49266 12.0395 9.58339V12.5033H9.71538C9.60492 12.5033 9.51538 12.5929 9.51538 12.7033V16.8171C9.51538 16.9276 9.60492 17.0171 9.71538 17.0171H12.0395C12.0395 22.2361 12.0395 28.4186 12.0395 29.5921C12.0395 29.7026 12.129 29.7896 12.2395 29.7896H17.1486C17.2591 29.7896 17.3486 29.7024 17.3486 29.592C17.3486 28.4122 17.3486 22.1766 17.3486 17.0171H20.7505C20.8531 17.0171 20.939 16.9395 20.9495 16.8375L21.3715 12.7237Z" stroke="#17C1BC" stroke-width="2"/>
</svg>
