<svg width="32" height="32" viewBox="0 0 32 32" fill="none" xmlns="http://www.w3.org/2000/svg">
<path d="M16.6533 2C12.9453 2 12.4803 2.01572 11.0241 2.08216C9.57082 2.1485 8.57831 2.37927 7.70981 2.71681C6.81199 3.06573 6.05058 3.53258 5.29155 4.2916C4.53252 5.05063 4.06567 5.81204 3.71675 6.70987C3.37922 7.57831 3.14845 8.57082 3.08211 10.0241C3.01566 11.4803 3 11.9453 3 15.6533C3 19.3613 3.01566 19.8263 3.08211 21.2825C3.14845 22.7358 3.37922 23.7283 3.71675 24.5967C4.06567 25.4945 4.53252 26.2559 5.29155 27.015C6.05058 27.7741 6.81199 28.2409 7.70981 28.5898C8.57831 28.9273 9.57082 29.1581 11.0241 29.2244C12.4803 29.2909 12.9453 29.3066 16.6533 29.3066C20.3613 29.3066 20.8263 29.2909 22.2825 29.2244C23.7358 29.1581 24.7283 28.9273 25.5967 28.5898C26.4945 28.2409 27.2559 27.7741 28.015 27.015C28.7741 26.2559 29.2409 25.4945 29.5898 24.5967C29.9273 23.7283 30.1581 22.7358 30.2244 21.2825C30.2909 19.8263 30.3066 19.3613 30.3066 15.6533C30.3066 11.9453 30.2909 11.4803 30.2244 10.0241C30.1581 8.57082 29.9273 7.57831 29.5898 6.70987C29.2409 5.81204 28.7741 5.05063 28.015 4.2916C27.2559 3.53258 26.4945 3.06573 25.5967 2.71681C24.7283 2.37927 23.7358 2.1485 22.2825 2.08216C20.8263 2.01572 20.3613 2 16.6533 2ZM16.6533 4.4601C20.2989 4.4601 20.7307 4.47398 22.1704 4.53966C23.5016 4.60042 24.2245 4.82284 24.7056 5.00977C25.3429 5.25745 25.7977 5.55336 26.2755 6.0311C26.7533 6.50885 27.0491 6.96372 27.2968 7.60097C27.4838 8.08207 27.7062 8.80501 27.7669 10.1362C27.8326 11.5759 27.8465 12.0077 27.8465 15.6533C27.8465 19.2989 27.8326 19.7307 27.7669 21.1704C27.7062 22.5016 27.4838 23.2245 27.2968 23.7056C27.0491 24.3429 26.7533 24.7977 26.2755 25.2755C25.7977 25.7533 25.3429 26.0491 24.7056 26.2968C24.2245 26.4838 23.5016 26.7062 22.1704 26.7669C20.7309 26.8326 20.2991 26.8465 16.6533 26.8465C13.0074 26.8465 12.5757 26.8326 11.1362 26.7669C9.80501 26.7062 9.08207 26.4838 8.60097 26.2968C7.96367 26.0491 7.50885 25.7533 7.03105 25.2755C6.55331 24.7977 6.25739 24.3429 6.00977 23.7056C5.82279 23.2245 5.60036 22.5016 5.53961 21.1704C5.47392 19.7307 5.46005 19.2989 5.46005 15.6533C5.46005 12.0077 5.47392 11.5759 5.53961 10.1362C5.60036 8.80501 5.82279 8.08207 6.00977 7.60097C6.25739 6.96372 6.55331 6.50885 7.03105 6.0311C7.50885 5.55336 7.96367 5.25745 8.60097 5.00977C9.08207 4.82284 9.80501 4.60042 11.1362 4.53966C12.5759 4.47398 13.0077 4.4601 16.6533 4.4601Z" fill="#E59B06"/>
<path d="M16.6518 20.2043C14.1383 20.2043 12.1007 18.1667 12.1007 15.6533C12.1007 13.1397 14.1383 11.1021 16.6518 11.1021C19.1653 11.1021 21.2029 13.1397 21.2029 15.6533C21.2029 18.1667 19.1653 20.2043 16.6518 20.2043ZM16.6518 8.64209C12.7796 8.64209 9.64062 11.7811 9.64062 15.6533C9.64062 19.5254 12.7796 22.6644 16.6518 22.6644C20.5239 22.6644 23.6629 19.5254 23.6629 15.6533C23.6629 11.7811 20.5239 8.64209 16.6518 8.64209Z" fill="#E59B06"/>
<path d="M25.5815 8.36493C25.5815 9.2698 24.8479 10.0033 23.9431 10.0033C23.0382 10.0033 22.3047 9.2698 22.3047 8.36493C22.3047 7.46006 23.0382 6.72656 23.9431 6.72656C24.8479 6.72656 25.5815 7.46006 25.5815 8.36493Z" fill="#E59B06"/>
</svg>
