<svg width="32" height="32" viewBox="0 0 32 32" fill="none" xmlns="http://www.w3.org/2000/svg">
<path d="M31.3068 23.125C29.9014 20.9127 28.2567 18.8618 26.4024 17.0094C26.3687 16.9673 26.3503 16.9149 26.3503 16.861C26.3503 16.807 26.3687 16.7547 26.4024 16.7125C27.9981 14.5346 29.4082 12.2268 30.618 9.81316C30.7931 9.46778 30.8762 9.08318 30.8596 8.69635C30.843 8.30952 30.7271 7.93348 30.523 7.60441C30.337 7.26995 30.0649 6.99124 29.7351 6.79709C29.4052 6.60294 29.0295 6.50039 28.6468 6.50003H25.0843C24.6322 6.50881 24.192 6.64644 23.8155 6.89677C23.439 7.14709 23.1417 7.49971 22.9587 7.91316C21.9239 10.2017 20.6838 12.3917 19.2537 14.4563V8.63753C19.2552 8.35639 19.201 8.07773 19.0942 7.81769C18.9873 7.55764 18.8299 7.32138 18.6311 7.12258C18.4323 6.92378 18.1961 6.76639 17.936 6.65953C17.676 6.55267 17.3973 6.49846 17.1162 6.50003H11.9149C11.6121 6.50474 11.3164 6.59206 11.0596 6.75257C10.8028 6.91308 10.5947 7.14068 10.4578 7.4108C10.3209 7.68092 10.2604 7.9833 10.2828 8.2853C10.3052 8.58729 10.4097 8.87744 10.5849 9.12441L11.0599 9.78941C11.3147 10.1553 11.4514 10.5904 11.4518 11.0363V15.5963C9.88422 13.2773 8.6379 10.7567 7.7468 8.10316C7.58611 7.63557 7.2835 7.2298 6.88116 6.94242C6.47883 6.65504 5.99685 6.50039 5.50242 6.50003H2.59305C2.28392 6.50373 1.97961 6.57714 1.70281 6.71481C1.426 6.85247 1.18383 7.05083 0.99435 7.2951C0.804867 7.53937 0.672958 7.82326 0.608452 8.1256C0.543946 8.42794 0.548507 8.74095 0.621795 9.04128C2.22492 15.8457 5.58555 21.4863 9.84867 24.4788C10.1042 24.6603 10.4211 24.7334 10.7302 24.6823C11.0394 24.6311 11.3159 24.4598 11.4993 24.2057C11.591 24.0787 11.6567 23.9349 11.6927 23.7825C11.7286 23.6301 11.734 23.4721 11.7086 23.3176C11.6832 23.1631 11.6275 23.0151 11.5447 22.8822C11.4619 22.7493 11.3537 22.6341 11.2262 22.5432C7.49742 19.9307 4.52867 14.955 3.02055 8.87503H5.5143C6.60707 12.1952 8.25318 15.3067 10.383 18.0782C10.6292 18.3927 10.9682 18.6216 11.352 18.7325C11.7357 18.8434 12.1446 18.8305 12.5205 18.6957C12.9063 18.5612 13.24 18.3088 13.4744 17.9742C13.7089 17.6396 13.8321 17.2398 13.8268 16.8313V11.0363C13.8293 10.2814 13.6415 9.53806 13.2805 8.87503H16.843V15.3232C16.8388 15.7845 16.9865 16.2345 17.2633 16.6036C17.5402 16.9728 17.9308 17.2405 18.3749 17.3657C18.8058 17.5091 19.272 17.5065 19.7013 17.3584C20.1306 17.2103 20.4991 16.9249 20.7499 16.5463C22.4366 14.1399 23.8768 11.5699 25.0487 8.87503H28.3737C27.2418 11.1005 25.9354 13.2328 24.4668 15.2519C24.0965 15.7473 23.9167 16.3594 23.9603 16.9764C24.0039 17.5934 24.268 18.1741 24.7043 18.6125C26.4363 20.3579 27.9952 22.2668 29.3593 24.3125H25.3812C24.1539 22.2811 22.5059 20.5359 20.548 19.1944C20.2543 18.9792 19.9061 18.8506 19.5429 18.8233C19.1798 18.796 18.8163 18.8711 18.4937 19.04C18.1619 19.2098 17.884 19.4686 17.6911 19.7874C17.4981 20.1062 17.3977 20.4724 17.4012 20.845V23.6713C17.4077 23.8363 17.3491 23.9972 17.238 24.1194C17.1269 24.2416 16.9723 24.3152 16.8074 24.3244H15.7862C15.4712 24.3244 15.1692 24.4495 14.9465 24.6722C14.7238 24.8949 14.5987 25.197 14.5987 25.5119C14.5987 25.8269 14.7238 26.1289 14.9465 26.3516C15.1692 26.5743 15.4712 26.6994 15.7862 26.6994H16.8074C17.2014 26.6963 17.5909 26.6154 17.9536 26.4614C18.3162 26.3074 18.6449 26.0833 18.9207 25.802C19.1966 25.5206 19.4141 25.1876 19.5609 24.8219C19.7077 24.4563 19.7809 24.0653 19.7762 23.6713V21.5694C21.2046 22.6439 22.414 23.9822 23.3387 25.5119C23.5428 25.8657 23.8348 26.1609 24.1863 26.3689C24.5379 26.5769 24.9371 26.6908 25.3455 26.6994H29.3593C29.7697 26.7004 30.1728 26.5906 30.526 26.3816C30.8793 26.1726 31.1695 25.8722 31.3662 25.5119C31.5679 25.1442 31.6687 24.7297 31.6582 24.3105C31.6478 23.8912 31.5265 23.4822 31.3068 23.125Z" fill="#BC0000"/>
</svg>
