<svg width="63" height="20" viewBox="0 0 63 20" fill="none" xmlns="http://www.w3.org/2000/svg">
    <g clip-path="url(#clip0_106_5497)" id="logo-small">
        <path d="M17.5621 14.1995C17.5621 15.8034 17.0262 17.1469 15.9543 18.23C14.8835 19.3128 13.5517 19.8544 11.9588 19.8547H7.26351V12.1803H10.2941V17.0588H11.9588C12.761 17.0588 13.4147 16.7973 13.9198 16.2743C14.4256 15.7531 14.6782 15.0615 14.6774 14.1995C14.6774 13.3374 14.4249 12.645 13.9198 12.1224C13.415 11.6002 12.7614 11.339 11.9588 11.339H5.59888C4.70843 11.3519 3.8279 11.1544 3.03171 10.7632C2.98045 10.7381 2.92919 10.7108 2.87906 10.6835C2.4074 10.4243 1.97748 10.0981 1.6033 9.71543C0.587402 8.6969 0.0128468 7.33239 0 5.90773L0 5.46954C0.0445831 3.95847 0.579033 2.68597 1.60335 1.65203C2.67408 0.569288 4.00593 0.027725 5.59888 0.0273438H10.2941V7.70286H7.26351V2.82331H5.59888C4.79665 2.82331 4.14299 3.08444 3.63789 3.6067C3.13204 4.12899 2.87911 4.82097 2.87911 5.68264C2.87911 6.54578 3.13204 7.23812 3.63789 7.75965C4.14261 8.28194 4.79628 8.54344 5.59888 8.54416H11.9588C13.5521 8.54416 14.8839 9.085 15.9543 10.1667C17.0262 11.2495 17.5621 12.5937 17.5621 14.1995Z"
              fill="#4A4A4A"/>
        <path d="M28.456 0H25.7472L22.877 8.52921H25.2875L25.6603 7.29853H28.5554L28.9282 8.52921H31.3264L28.456 0ZM26.2319 5.42217L27.1017 2.52225L27.9839 5.42217H26.2319Z"
              fill="#E97522"/>
        <path d="M35.5022 7.11754e-09H31.9609V5.66237H34.2472V2.10794H35.5022C35.7773 2.09835 36.0513 2.14606 36.3062 2.24793C36.5611 2.3498 36.791 2.50351 36.9809 2.69892C37.3618 3.09297 37.5523 3.61486 37.5524 4.2646C37.5524 4.91453 37.3619 5.43642 36.9809 5.83028C36.791 6.02572 36.5611 6.17945 36.3062 6.28132C36.0513 6.38319 35.7773 6.43089 35.5022 6.42126H31.9609V8.52921H35.5022C36.7032 8.52921 37.7075 8.12102 38.5153 7.30464C39.3232 6.48826 39.727 5.47492 39.7269 4.2646C39.7269 3.05435 39.323 2.04101 38.5154 1.22457C37.7077 0.408127 36.7033 -6.2237e-05 35.5022 7.11754e-09Z"
              fill="#E97522"/>
        <path d="M44.2991 7.11754e-09H40.7578V2.10794H44.2991C44.5742 2.09835 44.8482 2.14606 45.1031 2.24793C45.3579 2.3498 45.5879 2.50351 45.7778 2.69892C46.1586 3.093 46.3492 3.61489 46.3493 4.2646C46.3493 4.91453 46.1588 5.43642 45.7778 5.83028C45.5879 6.02572 45.358 6.17945 45.1031 6.28132C44.8482 6.38319 44.5742 6.43088 44.2991 6.42126H43.0441V2.86684H40.7578V8.52921H44.2991C45.5 8.52921 46.5044 8.12102 47.3122 7.30464C48.12 6.48826 48.5239 5.47492 48.5237 4.2646C48.5237 3.05435 48.1199 2.04101 47.3122 1.22457C46.5045 0.408127 45.5002 -6.2237e-05 44.2991 7.11754e-09Z"
              fill="#E97522"/>
        <path d="M26.2566 11.2882C26.6637 11.2776 27.0689 11.3465 27.4486 11.4909C27.8283 11.6352 28.175 11.8521 28.4685 12.1289C29.0648 12.6895 29.363 13.4044 29.3631 14.2735C29.3631 15.1428 29.0649 15.8576 28.4685 16.4179C28.175 16.6948 27.8283 16.9117 27.4486 17.056C27.0689 17.2003 26.6637 17.2692 26.2566 17.2586H25.101V19.8175H22.877V11.2882H26.2566ZM26.2566 15.1873C26.3736 15.1897 26.4899 15.1682 26.5979 15.1242C26.7059 15.0801 26.8034 15.0144 26.8841 14.9313C26.9694 14.844 27.0359 14.7408 27.0796 14.6278C27.1234 14.5148 27.1436 14.3943 27.139 14.2735C27.144 14.1535 27.124 14.0339 27.0802 13.9218C27.0363 13.8097 26.9696 13.7075 26.8841 13.6216C26.8025 13.5402 26.7047 13.4759 26.5968 13.433C26.4889 13.39 26.3731 13.3691 26.2566 13.3717H25.101V15.1873H26.2566Z"
              fill="#B1B1B1"/>
        <path d="M34.9045 11.2871H37.1162V19.8165H34.9045V16.5388H32.4565V19.8165H30.2324V11.2871H32.4565V14.4429H34.9045V11.2871Z"
              fill="#B1B1B1"/>
        <path d="M45.9583 18.7148C45.0905 19.5392 43.9296 20.0002 42.7214 20.0002C41.5132 20.0002 40.3523 19.5392 39.4845 18.7148C39.0541 18.3053 38.7144 17.8132 38.4867 17.2691C38.259 16.7251 38.1482 16.1408 38.1612 15.5528C38.1482 14.9649 38.2591 14.3806 38.4868 13.8366C38.7145 13.2925 39.0541 12.8003 39.4845 12.3908C40.3523 11.5664 41.5132 11.1055 42.7214 11.1055C43.9297 11.1055 45.0905 11.5664 45.9583 12.3908C46.3887 12.8004 46.7283 13.2925 46.956 13.8366C47.1837 14.3806 47.2945 14.9649 47.2816 15.5528C47.2946 16.1408 47.1837 16.725 46.956 17.2691C46.7283 17.8132 46.3887 18.3053 45.9583 18.7148ZM41.0439 17.2161C41.4386 17.6287 41.9678 17.8934 42.5401 17.9646C43.1125 18.0357 43.6923 17.9089 44.1795 17.6059C44.6668 17.303 45.031 16.8428 45.2095 16.3048C45.3879 15.7668 45.3694 15.1846 45.1572 14.6585C44.9449 14.1324 44.5522 13.6954 44.0467 13.4228C43.5412 13.1501 42.9545 13.0589 42.3877 13.1648C41.821 13.2708 41.3097 13.5672 40.9419 14.0031C40.5741 14.439 40.3729 14.9871 40.3729 15.5528C40.3624 15.8604 40.4165 16.1668 40.532 16.4529C40.6474 16.739 40.8217 16.9988 41.0439 17.2161Z"
              fill="#B1B1B1"/>
        <path d="M53.842 11.2871V13.395H51.6922V19.8165H49.4681V13.395H47.3184V11.2871H53.842Z" fill="#B1B1B1"/>
        <path d="M61.677 18.7148C60.8092 19.5392 59.6484 20.0002 58.4402 20.0002C57.2319 20.0002 56.0711 19.5392 55.2033 18.7148C54.7729 18.3053 54.4332 17.8132 54.2055 17.2691C53.9778 16.7251 53.8669 16.1408 53.8799 15.5528C53.867 14.9649 53.9778 14.3806 54.2055 13.8366C54.4332 13.2925 54.7729 12.8004 55.2033 12.3908C56.0711 11.5664 57.2319 11.1055 58.4401 11.1055C59.6484 11.1055 60.8092 11.5664 61.677 12.3908C62.1074 12.8004 62.4471 13.2925 62.6747 13.8366C62.9024 14.3806 63.0133 14.9649 63.0004 15.5528C63.0133 16.1408 62.9025 16.725 62.6748 17.2691C62.4471 17.8132 62.1075 18.3053 61.677 18.7148ZM56.7627 17.2161C57.1574 17.6287 57.6865 17.8934 58.2589 17.9646C58.8313 18.0357 59.411 17.9089 59.8983 17.6059C60.3855 17.303 60.7498 16.8428 60.9282 16.3048C61.1067 15.7668 61.0882 15.1846 60.8759 14.6585C60.6637 14.1324 60.271 13.6954 59.7654 13.4228C59.2599 13.1501 58.6732 13.0589 58.1065 13.1648C57.5397 13.2708 57.0284 13.5672 56.6606 14.0031C56.2928 14.439 56.0916 14.9871 56.0916 15.5528C56.0811 15.8604 56.1353 16.1668 56.2507 16.4529C56.3662 16.739 56.5404 16.9988 56.7627 17.2161Z"
              fill="#B1B1B1"/>
    </g>
    <defs>
        <clipPath id="clip0_106_5497">
            <rect width="63" height="20" fill="white"/>
        </clipPath>
    </defs>
</svg>
