<svg width="455" height="416" viewBox="0 0 455 416" fill="none" xmlns="http://www.w3.org/2000/svg">
<path d="M132.912 28.6007C119.062 48.4543 135.302 80.6419 114.75 95.5735C94.7449 110.108 70.1689 86.2838 51.3151 98.7953C23.3465 117.355 28.4541 202.282 69.3456 255.049C81.6431 270.918 91.9184 277.092 96.4692 295.039C106.241 333.576 71.8974 356.5 78.4331 375.559C93.1488 418.474 319.467 454.485 410.276 325.511C452.687 265.275 459.033 178.293 421.139 112.23C352.667 -7.14436 163.99 -15.9472 132.912 28.6007Z" fill="#F2F4F4"/>
<path d="M290.021 359.258C318.395 359.45 354.567 355.641 389.21 339.951C398.051 335.947 452.668 311.21 446.218 286.302C443.945 277.529 436.015 276.143 432.772 264.466C428.93 250.629 437.605 243.717 443.619 226.472C447.207 216.182 457.708 186.068 439.69 169.395C428.923 159.432 408.46 154.718 392.884 158.359C370.037 163.7 362.182 185.968 349.543 223.875C338.338 257.479 341.217 265.728 332.727 289.785C326.426 307.639 314.562 332.221 290.021 359.258Z" fill="#B3CEE0"/>
<path opacity="0.5" d="M218.746 374.767C202.314 374.768 185.498 372.491 168.434 367.942L168.778 366.645C199.828 374.922 230.039 375.624 258.576 368.731C296.589 359.547 329.563 336.745 356.581 300.956C384.726 263.676 399.359 221.648 406.679 192.956C411.744 173.103 410.766 151.12 403.772 127.615L405.057 127.231C412.121 150.972 413.103 173.197 407.977 193.288C400.627 222.1 385.929 264.308 357.65 301.766C330.441 337.808 297.213 360.777 258.89 370.035C245.743 373.199 232.267 374.787 218.746 374.767Z" fill="white"/>
<path opacity="0.5" d="M387.501 250.287L387.122 249.818C387.042 249.719 379.072 239.775 372.634 224.597C366.685 210.571 360.855 189.065 366.859 166.264L368.155 166.606C357.518 206.998 384.295 243.907 387.794 248.497C447.853 209.344 447.258 164.607 445.636 151.8C445.592 151.45 445.569 151.23 445.569 151.149L446.24 151.156L446.91 151.15C446.913 151.224 446.934 151.386 446.966 151.631C448.617 164.672 449.245 210.301 388.007 249.959L387.501 250.287Z" fill="white"/>
<path opacity="0.5" d="M380.552 303.158C372.831 303.135 365.123 302.548 357.487 301.4L357.133 301.348L356.98 301.024C356.815 300.677 340.594 265.801 344.153 218.386L347.739 170.601L349.075 170.701L345.489 218.487C342.142 263.103 356.422 296.505 358.043 300.125C378.338 303.069 407.57 303.554 432.308 289.404C447.18 280.896 453.449 270.979 453.51 270.88L454.649 271.588C454.392 272.002 448.185 281.846 433.05 290.525C422.236 296.726 405.099 303.158 380.552 303.158Z" fill="white"/>
<path d="M261.884 282.532C239.594 303.479 208.213 326.979 169.352 339.963C159.434 343.277 98.1692 363.747 85.0554 339.324C80.4361 330.721 85.6926 323.813 79.7173 312.202C72.6369 298.445 60.7248 299.338 43.361 290.109C33.0001 284.603 2.67882 268.488 4.73087 242.098C5.95725 226.328 18.6883 207.603 33.6646 199.066C55.6315 186.544 78.1238 198.395 115.835 219.106C149.265 237.466 153.02 246.098 177.323 258.898C195.36 268.398 222.714 279.139 261.884 282.532Z" fill="#CFE0ED"/>
<path opacity="0.5" d="M244.131 300.384C225.144 300.384 205.459 297.521 185.076 291.795C136.466 278.115 96.4085 251.504 71.3647 231.589C53.9204 217.717 40.3219 198.036 30.9473 173.092L31.8962 172.734C41.2055 197.504 54.697 217.038 71.9957 230.794C96.9668 250.651 136.903 277.183 185.351 290.817C231.877 303.911 275.061 301.958 313.704 285.012C342.711 272.292 368.208 251.953 389.486 224.56L390.286 225.184C368.904 252.712 343.274 273.154 314.111 285.942C292.165 295.566 268.762 300.384 244.131 300.384Z" fill="white"/>
<path opacity="0.5" d="M109.732 267.742C43.0845 267.742 17.42 232.742 10.852 221.346C10.7104 221.1 10.6208 220.941 10.5762 220.879L11.38 220.26C11.5073 220.446 11.6244 220.639 11.7307 220.838C18.6963 232.924 47.4077 271.848 124.699 266.162C124.721 263.657 124.614 251.145 120.739 235.833C116.761 220.111 107.881 198.132 88.1719 182.705L88.7969 181.905C108.741 197.515 117.714 219.728 121.73 235.613C126.077 252.809 125.71 266.514 125.706 266.65L125.692 267.106L125.237 267.141C119.842 267.549 114.673 267.749 109.732 267.742Z" fill="white"/>
<path opacity="0.5" d="M173.761 302.498C97.5402 321.15 58.394 288.305 47.6934 277.111C47.4627 276.87 47.3155 276.712 47.2472 276.654L47.9933 275.721C48.191 275.898 48.3789 276.087 48.5562 276.284C59.9047 288.157 103.634 324.636 190.436 296.503C189.76 293.631 186.136 279.353 177.419 262.925C168.469 246.058 152.163 223.407 125.305 211.281L125.796 210.191C152.974 222.461 169.452 245.353 178.49 262.396C188.275 280.846 191.691 296.622 191.724 296.779L191.836 297.305L191.325 297.471C185.269 299.448 179.414 301.124 173.761 302.498Z" fill="white"/>
<path d="M285.862 299.463C269.383 289.281 246.833 271.887 232.502 243.715C213.708 206.767 225.563 183.744 210.296 117.816C200.643 76.1313 193.487 47.1373 169.204 35.7984C150.174 26.9128 122.905 29.9331 108.965 44.6055C97.3742 56.8052 93.6418 78.4888 94.172 93.3156C94.6041 105.399 97.8903 113.567 92.4135 121.095C86.8163 128.789 78.6691 126.74 73.1869 132.711C62.0689 144.819 75.9829 174.586 78.2317 179.397C103.247 232.913 162.754 260.316 188.856 271.956C210.437 281.58 243.235 293.582 285.862 299.463Z" fill="#FEB58A"/>
<path opacity="0.5" d="M303.8 306.56C277.816 302.298 254.832 295.582 235.486 286.597C206.855 273.3 187.058 255.356 176.646 233.264C168.504 215.985 166.146 195.937 163.161 170.555C160.687 149.514 160.829 134.391 160.954 121.048C161.116 103.749 161.244 90.0862 155.459 71.5444C149.58 52.7071 139.353 34.8686 125.062 18.5245L125.825 17.8555C140.21 34.3066 150.506 52.2683 156.427 71.2415C162.26 89.9358 162.131 103.67 161.968 121.057C161.844 134.37 161.702 149.459 164.169 170.436C167.259 196.715 169.491 215.702 177.564 232.831C187.872 254.702 207.503 272.481 235.913 285.676C255.175 294.622 278.071 301.311 303.965 305.557L303.8 306.56Z" fill="white"/>
<path opacity="0.5" d="M162.022 155.614L161.752 155.108C143 119.934 118.232 100.584 100.757 90.5447C81.838 79.676 67.1886 77.0882 67.043 77.0633L67.2133 76.062C67.3609 76.0872 82.1882 78.7061 101.262 89.6638C118.767 99.7198 143.538 119.053 162.37 154.113C164.713 152.348 175.524 143.759 185.061 128.856C194.936 113.424 205.426 87.8618 199.322 53.723L200.32 53.5439C206.485 88.0262 195.877 113.849 185.892 129.44C175.073 146.333 162.615 155.197 162.491 155.285L162.022 155.614Z" fill="white"/>
<path opacity="0.5" d="M170.2 212.121L169.833 212.09C145.846 210.051 116.365 183.899 95.8578 162.318C73.6806 138.981 56.9262 115.822 56.7598 115.59L57.5819 114.996C57.7484 115.227 74.4686 138.338 96.6002 161.626C116.88 182.966 145.952 208.8 169.554 211.045C170.81 208.129 180.017 187.143 193.106 167.74C207.203 146.844 246.998 132.507 247.399 132.365L247.738 133.322C247.341 133.463 207.856 147.69 193.947 168.309C179.969 189.028 170.438 211.556 170.343 211.781L170.2 212.121Z" fill="white"/>
<g style="mix-blend-mode:soft-light" opacity="0.5">
<g style="mix-blend-mode:soft-light" opacity="0.5">
<path d="M227.111 256.99C214.583 256.966 202.072 256.107 189.659 254.42C163.261 250.838 124.751 241.669 91.1994 218.327L26.4082 173.254L26.9867 172.42L91.7779 217.493C125.156 240.714 163.489 249.841 189.769 253.409C214.719 256.797 233.819 255.953 238.321 255.679C230.46 246.464 226.174 236.045 225.582 224.695C225.095 215.375 227.085 205.419 231.496 195.103C238.991 177.576 251.065 164.895 251.186 164.769L251.917 165.473C251.797 165.598 239.836 178.165 232.418 195.527C228.073 205.696 226.115 215.496 226.595 224.656C227.196 236.085 231.623 246.557 239.753 255.781L240.421 256.54L239.414 256.623C239.318 256.631 234.784 256.99 227.111 256.99Z" fill="white"/>
</g>
</g>
<path d="M287.518 292.765C285.677 290.259 274.6 275.655 257.07 275.047C242.394 274.538 231.171 284.114 228.571 286.332C218.102 295.265 219.312 302.39 210.856 305.282C200.815 308.716 193.609 300.551 187.115 305.265C182.635 308.517 181.323 315.845 183.139 320.955C186.327 329.924 199.912 334.198 210.215 332.054C224.409 329.1 224.729 315.552 240.845 311.2C250.211 308.671 252.939 312.48 262.901 310.037C274.469 307.199 282.497 299.19 287.518 292.765Z" fill="url(#paint0_linear_85_1891)"/>
<g style="mix-blend-mode:soft-light" opacity="0.5">
<g style="mix-blend-mode:soft-light" opacity="0.5">
<path d="M206.894 318.788C198.186 318.788 187.583 314.438 175.234 305.781L175.526 305.365C192.067 316.962 205.409 320.776 215.178 316.701C221.335 314.134 224.386 309.293 227.615 304.168C231.249 298.401 235.006 292.437 243.533 289.59C250.09 287.401 257.684 288.449 272.814 290.537C280.383 291.582 287.882 293.083 295.271 295.031L295.141 295.522C287.773 293.579 280.294 292.083 272.746 291.04C257.693 288.963 250.138 287.921 243.693 290.072C235.338 292.861 231.63 298.747 228.044 304.439C224.77 309.634 221.678 314.541 215.373 317.17C212.786 318.249 209.96 318.788 206.894 318.788Z" fill="white"/>
</g>
<g style="mix-blend-mode:soft-light" opacity="0.5">
<path d="M189.568 333.487L189.453 332.992C207.424 328.815 212.301 318.694 212.735 317.711C211.122 312.151 206.415 307.451 202.74 304.482C200.317 302.521 197.726 300.78 194.996 299.276L195.231 298.826C195.38 298.904 210.14 306.715 213.247 317.658L213.271 317.74L213.24 317.82C213.195 317.932 208.627 329.057 189.568 333.487Z" fill="white"/>
</g>
<g style="mix-blend-mode:soft-light" opacity="0.5">
<path d="M230.465 327.665C228.658 322.226 230.29 314.176 235.317 303.739C237.651 298.942 240.31 294.311 243.275 289.878C235.158 283.256 215.311 298.98 215.11 299.141L214.793 298.744C214.844 298.703 219.984 294.611 226.069 291.456C234.31 287.184 240.269 286.573 243.78 289.64L243.951 289.79L243.821 289.977C243.65 290.223 226.731 314.815 230.946 327.505L230.465 327.665Z" fill="white"/>
</g>
<g style="mix-blend-mode:soft-light" opacity="0.5">
<path d="M248.05 320.077C243.27 301.707 267.863 291.571 270.799 290.434C262.363 275.867 241.294 273.11 241.08 273.083L241.142 272.579C241.359 272.606 262.927 275.43 271.387 290.442L271.535 290.704L271.252 290.805C270.975 290.905 243.601 300.967 248.54 319.949L248.05 320.077Z" fill="white"/>
</g>
</g>
<path d="M369.088 54.1501C366.34 45.2425 362.048 40.9348 358.778 38.6577C351.772 33.7791 342.276 33.2216 342.541 31.3523C342.655 30.5419 344.533 29.9889 345.096 29.8235C347.844 29.0142 349.383 30.4046 350.913 29.4894C352.053 28.807 352.363 27.337 352.589 26.1859C353.735 20.3595 350.376 13.1895 348.591 7.93238C348.467 7.56597 348.187 6.72033 348.462 6.51978C348.759 6.30349 349.55 6.94814 349.816 7.16565C352.657 9.48234 356.203 19.8246 356.199 19.8257C356.198 19.8261 356.204 18.6401 355.136 15.266C353.274 9.38725 351.251 6.65967 351.428 1.99623C351.463 1.08537 351.5 0.266139 351.815 0.17274C353.409 -0.299948 359.136 18.6986 360.196 18.3479C360.462 18.2599 360.313 16.9928 360.239 16.3619C359.55 10.4696 356.311 8.70975 356.586 3.94744C356.629 3.19807 356.693 2.10483 357.102 1.98917C358.476 1.60093 362.123 12.7054 363.933 17.785C367.677 28.3269 370.687 39.1155 372.943 50.0736C371.658 51.4324 370.373 52.7913 369.088 54.1501Z" fill="#FEB3B1"/>
<path d="M251.981 39.765C246.914 38.1801 245.554 32.3076 245.017 29.9865C243.747 24.4991 244.24 15.0253 249.98 12.3986C254.591 10.2885 259.743 13.9 260.381 14.3614C266.878 19.0552 265.658 28.0465 265.515 28.9872C265.195 31.0949 264.534 35.4437 260.715 38.1467C260.445 38.3375 256.363 41.1356 251.981 39.765Z" fill="#424242"/>
<g style="mix-blend-mode:multiply" opacity="0.3">
<path style="mix-blend-mode:multiply" opacity="0.3" d="M258.696 26.2592C255.337 22.9263 250.589 24.3851 248.587 21.3517C247.588 19.8369 247.331 17.2816 249.348 12.7324C244.209 15.747 243.797 24.7088 245.019 29.9864C245.556 32.3074 246.915 38.18 251.982 39.7648C256.364 41.1355 260.447 38.3374 260.716 38.1466C260.884 38.0278 261.043 37.9049 261.199 37.7802C261.759 33.4177 261.439 28.9815 258.696 26.2592Z" fill="url(#paint1_linear_85_1891)"/>
</g>
<path d="M247.976 156.542C247.976 156.542 227.584 93.0355 227.653 69.1431C227.721 45.2507 248.534 35.965 257.775 33.7566C267.011 31.5492 286.604 33.9775 292.635 60.8747C298.664 87.7634 294.312 148.05 294.312 148.05L247.976 156.542Z" fill="#424242"/>
<g style="mix-blend-mode:soft-light" opacity="0.3">
<path d="M264.907 92.6012C279.599 90.8023 282.855 76.913 296.36 75.3071C297.823 75.1337 299.3 75.1192 300.766 75.2638C300.563 72.6294 300.311 70.0955 300.002 67.7C298.363 67.4951 296.706 67.4895 295.066 67.6831C281.559 69.2865 278.303 83.1756 263.61 84.9716C251.626 86.4366 246.28 78.119 236.14 81.7384C233.528 82.6708 231.321 84.1386 229.461 85.8375C229.883 88.2522 230.37 90.7634 230.909 93.3377C232.806 91.6021 235.024 90.2553 237.439 89.3735C247.578 85.7523 252.924 94.0685 264.907 92.6012Z" fill="#37383A"/>
</g>
<path style="mix-blend-mode:multiply" opacity="0.8" d="M266.16 116.95C255.171 118.209 250.145 109.827 240.88 113.265C239.196 113.9 237.627 114.807 236.236 115.951C241.785 137.263 247.975 156.543 247.975 156.543L294.311 148.051C294.311 148.051 296.016 124.426 295.813 100.161C295.473 100.179 295.142 100.206 294.823 100.242C282.435 101.613 279.634 115.406 266.16 116.95Z" fill="#979797"/>
<path style="mix-blend-mode:multiply" opacity="0.3" d="M290.794 76.5123C278.403 77.8767 275.602 91.6689 262.126 93.2043C251.134 94.4566 246.107 86.071 236.84 89.5034C234.516 90.3641 232.552 91.7366 230.895 93.341C232.394 100.623 234.275 108.413 236.237 115.95C237.628 114.806 239.197 113.899 240.881 113.264C250.146 109.827 255.172 118.208 266.161 116.949C279.635 115.405 282.436 101.613 294.824 100.241C295.143 100.206 291.994 76.3802 290.794 76.5123Z" fill="#515356"/>
<path d="M185.775 201.549C176.834 189.886 189.136 163.482 202.64 148.605C218.35 131.298 238.462 126.534 251.223 123.69C293.46 114.277 307.011 133.41 328.33 122.436C361.401 105.412 354.144 46.2462 369.087 44.6114C381.358 43.269 400.691 81.5999 395.353 119.612C391.211 149.108 363.195 178.122 334.911 191.04C314.391 200.412 317.507 197.924 270.784 200.626C216.625 203.759 194.588 213.046 185.775 201.549Z" fill="#EE6E23"/>
<path d="M236.553 127.36C245.222 124.233 259.395 123.526 259.246 92.508C259.246 92.508 277.202 91.3708 277.883 91.5959C278.526 91.8087 273.126 122.578 298.219 122.368C299.925 122.354 300.373 124.755 299.003 125.842C294.466 129.442 284.232 135.016 269.078 135.192C259.486 135.304 248.543 137.457 236.502 131.11C234.853 130.241 234.734 128.016 236.553 127.36Z" fill="#FEAEAB"/>
<path d="M297.99 186.008C292.909 186.072 294.671 143.08 279.471 79.9645C276.319 66.8723 273.227 56.1983 271.039 49.0284C276.442 48.3358 281.843 47.6434 287.243 46.9512C296.629 65.0131 310.607 98.6222 307.946 142.172C306.695 162.649 301.727 185.961 297.99 186.008Z" fill="url(#paint2_linear_85_1891)"/>
<path d="M297.99 186.008C292.909 186.072 294.671 143.08 279.471 79.9645C276.319 66.8723 273.227 56.1983 271.039 49.0284C276.442 48.3358 281.843 47.6434 287.243 46.9512C296.629 65.0131 310.607 98.6222 307.946 142.172C306.695 162.649 301.727 185.961 297.99 186.008Z" fill="#424242"/>
<path d="M241.566 74.2794C242.254 78.3224 245.431 108.316 268.27 103.359C289.128 98.8319 283.637 77.6264 281.186 66.9159C281.186 66.9159 278.578 57.3785 271.081 56.1279C271.081 56.1279 278.531 60.2907 280.475 72.3487C280.475 72.3487 277.764 66.2785 262.425 69.3703C247.074 72.4645 245.04 80.0136 245.04 80.0136C245.04 80.0136 240.363 69.0023 247.132 61.297C247.132 61.297 241.895 64.1913 241.566 74.2794Z" fill="#FC9F9D"/>
<g style="mix-blend-mode:multiply" opacity="0.3">
<path style="mix-blend-mode:multiply" opacity="0.3" d="M390.324 71.3496C393.185 87.9729 390.116 98.7098 385.642 105.937C375.566 122.212 357.752 121.713 335.821 147.402C323.543 161.782 322.748 169.41 315.116 180.443C311.612 185.509 307.035 190.761 300.92 195.829C317.406 196.288 320.594 197.579 334.911 191.04C363.195 178.122 391.211 149.108 395.353 119.612C397.778 102.339 395.109 85.0018 390.324 71.3496Z" fill="#848484"/>
</g>
<path d="M395.629 198.95L107.867 189.01C106.425 188.961 104.988 189.202 103.642 189.72C102.295 190.238 101.067 191.022 100.03 192.025C98.9922 193.029 98.1673 194.231 97.6038 195.561C97.0404 196.89 96.75 198.32 96.75 199.764V385.471C96.75 386.952 97.0553 388.417 97.6467 389.775C98.2381 391.132 99.103 392.352 100.187 393.359C101.271 394.367 102.552 395.139 103.947 395.628C105.343 396.117 106.825 396.312 108.3 396.201L396.063 374.584C398.766 374.38 401.293 373.162 403.137 371.172C404.98 369.182 406.005 366.568 406.005 363.854V209.704C406.005 206.915 404.923 204.234 402.987 202.228C401.052 200.222 398.414 199.046 395.629 198.95Z" fill="#737373"/>
<path d="M400.575 198.95L112.812 189.01C111.37 188.961 109.933 189.202 108.587 189.72C107.241 190.238 106.012 191.022 104.975 192.025C103.938 193.029 103.113 194.231 102.549 195.561C101.986 196.89 101.695 198.32 101.695 199.764V385.471C101.695 386.952 102.001 388.417 102.592 389.774C103.183 391.132 104.048 392.352 105.133 393.359C106.217 394.367 107.497 395.139 108.893 395.628C110.289 396.117 111.771 396.312 113.245 396.201L401.008 374.584C403.711 374.38 406.238 373.162 408.082 371.172C409.926 369.182 410.95 366.568 410.95 363.853V209.704C410.95 206.914 409.868 204.234 407.933 202.228C405.997 200.222 403.359 199.046 400.575 198.95Z" fill="url(#paint3_linear_85_1891)"/>
<path d="M287.597 302.219L408.175 202.503C407.213 201.429 406.043 200.561 404.737 199.95C403.431 199.34 402.015 198.999 400.575 198.95L112.812 189.01C110.187 188.916 107.619 189.792 105.598 191.472L266.792 303.107C269.884 305.248 273.589 306.32 277.344 306.159C281.099 305.999 284.699 304.615 287.597 302.219Z" fill="#8A8A8A"/>
<path d="M287.597 302.22C284.699 304.616 281.099 306 277.344 306.16C273.588 306.321 269.883 305.249 266.792 303.108L105.597 191.473C104.376 192.48 103.392 193.747 102.718 195.18C102.043 196.614 101.694 198.18 101.695 199.764V385.472C101.695 386.953 102.001 388.418 102.592 389.775C103.183 391.132 104.048 392.353 105.133 393.36C106.217 394.367 107.497 395.139 108.893 395.628C110.289 396.117 111.771 396.313 113.245 396.202L401.008 374.584C403.711 374.381 406.238 373.162 408.082 371.172C409.926 369.182 410.95 366.568 410.95 363.854V209.704C410.951 207.042 409.961 204.476 408.175 202.504L287.597 302.22Z" fill="#D2D2D2"/>
<g opacity="0.37">
<path d="M408.175 202.504L287.597 302.22C284.699 304.616 281.099 306 277.344 306.16C273.588 306.321 269.883 305.249 266.792 303.108L105.597 191.473C104.376 192.48 103.392 193.747 102.718 195.18C102.043 196.614 101.694 198.18 101.695 199.764V227.153C107.519 224.702 112.447 224.231 116.453 224.567C127.527 225.493 130.172 232.415 151.377 242.408C171.204 251.752 173.284 247.77 182.024 254.541C198.863 267.586 191.499 282.642 206.257 296.647C221.625 311.231 234.885 299.911 256.861 313.775C280.083 328.426 272.649 345.718 291.785 355.882C318.594 370.121 345.971 342.97 368.76 357.309C375.65 361.644 380.056 368.477 382.896 375.945L401.008 374.584C403.711 374.381 406.238 373.162 408.082 371.172C409.926 369.182 410.95 366.568 410.95 363.854V209.704C410.951 207.042 409.961 204.476 408.175 202.504Z" fill="white" fill-opacity="0.78" style="mix-blend-mode:multiply"/>
</g>
<path style="mix-blend-mode:multiply" opacity="0.3" d="M131.1 227.046V394.86L150.986 412.978L188.288 383.071L131.1 227.046Z" fill="#393939"/>
<path d="M228.296 230.44L245.473 403.415C245.728 405.991 243.957 408.243 241.53 408.42L157.841 415.439C152.739 415.619 149.986 412.867 149.709 410.141L131.099 227.046C130.819 224.295 133.368 221.861 138.522 221.966L223.351 225.547C225.816 225.64 228.038 227.842 228.296 230.44Z" fill="#212121"/>
<path d="M232.102 230.22L249.35 404.087C249.607 406.676 247.829 408.94 245.392 409.119L158.628 415.487C155.919 415.686 153.468 413.607 153.19 410.867L134.497 226.802C134.216 224.036 136.244 221.859 138.997 221.964L227.136 225.302C229.611 225.395 231.843 227.609 232.102 230.22Z" fill="#494949"/>
<path d="M230.274 239.813L246.272 400.962C246.512 403.381 244.847 405.493 242.567 405.655L160.959 411.463C158.44 411.643 156.162 409.702 155.903 407.151L138.649 237.137C138.388 234.564 140.272 232.525 142.828 232.607L225.632 235.246C227.946 235.319 230.032 237.375 230.274 239.813Z" fill="#FFEDD8"/>
<path d="M186.383 229.156C186.476 230.086 185.821 230.815 184.917 230.785C184.013 230.754 183.204 229.974 183.11 229.042C183.017 228.11 183.675 227.381 184.579 227.413C185.482 227.445 186.29 228.226 186.383 229.156Z" fill="white"/>
<path d="M178.657 275.965C168.902 281.047 164.726 292.348 169.329 301.205C173.932 310.063 185.571 313.123 195.326 308.041L178.657 275.965Z" fill="#EE6E23"/>
<path d="M195.325 308.041L178.656 275.965C180.837 274.829 183.38 274.606 185.725 275.347C188.07 276.088 190.025 277.731 191.16 279.915L199.27 295.521C199.832 296.602 200.176 297.784 200.282 298.999C200.388 300.213 200.254 301.437 199.887 302.599C199.521 303.762 198.93 304.841 198.147 305.775C197.364 306.708 196.405 307.478 195.325 308.041Z" fill="#EE6E23"/>
<path d="M202.303 322.493C192.549 327.576 188.373 338.876 192.976 347.734C197.579 356.591 209.218 359.652 218.972 354.569L202.303 322.493Z" fill="#EE6E23"/>
<path d="M218.972 354.57L202.303 322.494C203.383 321.931 204.563 321.587 205.776 321.481C206.989 321.374 208.211 321.509 209.372 321.875C210.533 322.242 211.61 322.834 212.543 323.618C213.475 324.402 214.245 325.362 214.807 326.443L222.916 342.049C224.051 344.233 224.273 346.78 223.534 349.128C222.794 351.476 221.153 353.433 218.972 354.57Z" fill="#EE6E23"/>
<path d="M204.859 344.769L194.714 350.054C181.75 337.415 172.99 320.558 168.434 299.482L178.579 294.196L204.859 344.769Z" fill="#EE6E23"/>
<g style="mix-blend-mode:soft-light" opacity="0.3">
<path d="M178.35 314.024C169.727 288.512 184.736 275.659 176.236 252.029C171.611 239.173 162.354 229.595 152.17 222.462L138.997 221.964C136.244 221.859 134.216 224.036 134.497 226.801L153.19 410.867C153.468 413.607 155.919 415.686 158.627 415.487L233.536 409.989C233.301 390.77 228.425 377.091 223.002 367.368C208.099 340.648 187.278 340.441 178.35 314.024Z" fill="black"/>
</g>
<defs>
<linearGradient id="paint0_linear_85_1891" x1="109888" y1="122855" x2="187544" y2="122855" gradientUnits="userSpaceOnUse">
<stop stop-color="#FF9085"/>
<stop offset="1" stop-color="#FB6FBB"/>
</linearGradient>
<linearGradient id="paint1_linear_85_1891" x1="27582.8" y1="-13538.2" x2="25644.5" y2="-12031.4" gradientUnits="userSpaceOnUse">
<stop stop-color="#444B8C"/>
<stop offset="0.9964" stop-color="#3E4177"/>
</linearGradient>
<linearGradient id="paint2_linear_85_1891" x1="68922.3" y1="-38957.4" x2="29691" y2="-11091.5" gradientUnits="userSpaceOnUse">
<stop stop-color="#444B8C"/>
<stop offset="0.9964" stop-color="#3E4177"/>
</linearGradient>
<linearGradient id="paint3_linear_85_1891" x1="422747" y1="342471" x2="536938" y2="719893" gradientUnits="userSpaceOnUse">
<stop stop-color="#FFC444"/>
<stop offset="0.9964" stop-color="#F36F56"/>
</linearGradient>
</defs>
</svg>
