<svg width="26" height="25" viewBox="0 0 26 25" fill="none" xmlns="http://www.w3.org/2000/svg">
<path fill-rule="evenodd" clip-rule="evenodd" d="M13.3781 20H5.71511C5.22726 20 4.83203 19.6045 4.83203 19.1169V4.88307C4.83203 4.39528 5.22732 4 5.71511 4H19.949C20.4367 4 20.832 4.39528 20.832 4.88307V19.1169C20.832 19.6046 20.4366 20 19.949 20H15.8718V13.8039H17.9515L18.2629 11.3892H15.8718V9.84755C15.8718 9.14843 16.0659 8.672 17.0685 8.672L18.3471 8.67144V6.5117C18.126 6.48227 17.367 6.41652 16.4839 6.41652C14.6403 6.41652 13.3781 7.54184 13.3781 9.6084V11.3892H11.2931V13.8039H13.3781V20Z" fill="white"/>
</svg>
