<svg width="26" height="25" viewBox="0 0 26 25" fill="none" xmlns="http://www.w3.org/2000/svg">
<path fill-rule="evenodd" clip-rule="evenodd" d="M12.832 4C10.6594 4 10.3869 4.00921 9.53364 4.04814C8.68213 4.08698 8.10059 4.22223 7.59173 4.42001C7.06566 4.62442 6.61952 4.89797 6.17474 5.34271C5.73 5.78748 5.45645 6.23363 5.25204 6.7597C5.05426 7.26855 4.91901 7.8501 4.88017 8.70161C4.84124 9.5549 4.83203 9.82733 4.83203 12C4.83203 14.1727 4.84124 14.4451 4.88017 15.2984C4.91901 16.1499 5.05426 16.7314 5.25204 17.2403C5.45645 17.7664 5.73 18.2125 6.17474 18.6573C6.61952 19.102 7.06566 19.3756 7.59173 19.58C8.10059 19.7778 8.68213 19.913 9.53364 19.9519C10.3869 19.9908 10.6594 20 12.832 20C15.0047 20 15.2771 19.9908 16.1304 19.9519C16.9819 19.913 17.5635 19.7778 18.0723 19.58C18.5984 19.3756 19.0445 19.102 19.4893 18.6573C19.9341 18.2125 20.2076 17.7664 20.4121 17.2403C20.6098 16.7314 20.7451 16.1499 20.7839 15.2984C20.8228 14.4451 20.832 14.1727 20.832 12C20.832 9.82733 20.8228 9.5549 20.7839 8.70161C20.7451 7.8501 20.6098 7.26855 20.4121 6.7597C20.2076 6.23363 19.9341 5.78748 19.4893 5.34271C19.0445 4.89797 18.5984 4.62442 18.0723 4.42001C17.5635 4.22223 16.9819 4.08698 16.1304 4.04814C15.2771 4.00921 15.0047 4 12.832 4ZM12.832 5.44144C14.9681 5.44144 15.2211 5.4496 16.0647 5.48809C16.8447 5.52366 17.2683 5.65398 17.5502 5.76354C17.9236 5.90867 18.1901 6.08202 18.47 6.36198C18.75 6.64191 18.9234 6.90841 19.0685 7.28183C19.1781 7.56373 19.3084 7.98732 19.3439 8.76731C19.3824 9.61088 19.3906 9.86391 19.3906 12C19.3906 14.1361 19.3824 14.3891 19.3439 15.2327C19.3084 16.0127 19.1781 16.4363 19.0685 16.7182C18.9234 17.0916 18.75 17.3581 18.47 17.638C18.1901 17.918 17.9236 18.0913 17.5502 18.2365C17.2683 18.346 16.8447 18.4763 16.0647 18.5119C15.2213 18.5504 14.9683 18.5586 12.832 18.5586C10.6958 18.5586 10.4428 18.5504 9.59934 18.5119C8.81935 18.4763 8.39576 18.346 8.11386 18.2365C7.74044 18.0913 7.47394 17.918 7.19401 17.638C6.91408 17.3581 6.7407 17.0916 6.59557 16.7182C6.48601 16.4363 6.35569 16.0127 6.32012 15.2327C6.28163 14.3891 6.27347 14.1361 6.27347 12C6.27347 9.86391 6.28163 9.61088 6.32012 8.76731C6.35569 7.98732 6.48601 7.56373 6.59557 7.28183C6.7407 6.90841 6.91405 6.64191 7.19401 6.36198C7.47394 6.08202 7.74044 5.90867 8.11386 5.76354C8.39576 5.65398 8.81935 5.52366 9.59934 5.48809C10.4429 5.4496 10.6959 5.44144 12.832 5.44144ZM8.72393 12C8.72393 9.73114 10.5632 7.89189 12.832 7.89189C15.1009 7.89189 16.9401 9.73114 16.9401 12C16.9401 14.2689 15.1009 16.1081 12.832 16.1081C10.5632 16.1081 8.72393 14.2689 8.72393 12ZM12.832 14.6667C11.3593 14.6667 10.1654 13.4728 10.1654 12C10.1654 10.5272 11.3593 9.33333 12.832 9.33333C14.3048 9.33333 15.4987 10.5272 15.4987 12C15.4987 13.4728 14.3048 14.6667 12.832 14.6667ZM17.1024 8.68957C17.6326 8.68957 18.0625 8.25979 18.0625 7.72959C18.0625 7.19939 17.6326 6.76957 17.1024 6.76957C16.5723 6.76957 16.1425 7.19939 16.1425 7.72959C16.1425 8.25979 16.5723 8.68957 17.1024 8.68957Z" fill="white"/>
</svg>
