<svg width="20" height="23" viewBox="0 0 20 23" fill="none" xmlns="http://www.w3.org/2000/svg">
<path d="M6.35989 15.2767L6.41411 15.0768L6.31108 14.8971C5.72556 13.876 5.3843 12.6593 5.3843 11.4479C5.3843 7.61111 8.50374 4.5 12.3582 4.5C14.211 4.5 15.9659 5.22819 17.284 6.54167C18.595 7.84817 19.2814 9.59491 19.332 11.4026C19.3284 15.2363 16.2103 18.3438 12.3582 18.3438C11.1886 18.3438 10.0655 18.0527 9.03553 17.5151L8.86423 17.4257L8.67732 17.4747L5.54069 18.2973L6.35989 15.2767ZM13.3751 15.402L13.4065 15.4145L13.4394 15.4227C13.9259 15.5439 14.411 15.5454 14.7868 15.4837C15.0695 15.4418 15.4117 15.2841 15.6898 15.1017C15.9596 14.9248 16.2959 14.643 16.4324 14.2803C16.5274 14.0278 16.5767 13.7867 16.5935 13.5778C16.6093 13.3803 16.599 13.1751 16.5431 13.0081L16.5056 12.8959L16.4219 12.8125C16.3436 12.7345 16.2525 12.6808 16.187 12.6446C16.1217 12.6084 16.0398 12.5675 15.9484 12.5219C15.8185 12.4423 15.5393 12.2986 15.2989 12.1788C15.1593 12.1092 15.0185 12.0407 14.9013 11.9857C14.7969 11.9367 14.6795 11.8831 14.6064 11.8588C14.6027 11.8576 14.5983 11.8561 14.5932 11.8543C14.529 11.8324 14.3569 11.7733 14.175 11.7898C14.0582 11.8004 13.934 11.84 13.8203 11.9243C13.7107 12.0055 13.6357 12.1098 13.5837 12.2133C13.5598 12.261 13.4769 12.3776 13.3567 12.5239C13.2906 12.6044 13.2267 12.6779 13.1779 12.732C13.1604 12.7239 13.142 12.7155 13.1227 12.7067C12.8536 12.5841 12.4124 12.3831 11.8523 11.9058C11.4357 11.5273 11.1436 11.1211 11.0022 10.8926C11.0092 10.884 11.0154 10.8763 11.0206 10.8698C11.0348 10.852 11.0516 10.8302 11.067 10.8104C11.0739 10.8015 11.0805 10.7931 11.0864 10.7855C11.1322 10.7268 11.1675 10.684 11.1954 10.6563C11.358 10.4943 11.4408 10.3289 11.4935 10.2238C11.4952 10.2204 11.4968 10.2171 11.4984 10.2138C11.6215 9.96854 11.6215 9.69812 11.4984 9.45285L11.462 9.38025L11.4552 9.37347C11.4458 9.35311 11.434 9.32688 11.4199 9.29457C11.3782 9.19921 11.3245 9.07022 11.2658 8.92731C11.23 8.84008 11.1922 8.74731 11.1547 8.65526C11.0723 8.45292 10.9913 8.25408 10.936 8.12538C10.8348 7.89012 10.6887 7.68067 10.4543 7.57449C10.2522 7.48298 9.99992 7.51042 10.0585 7.51042H10.0579H10.0573H10.0567H10.0561H10.0554H10.0548H10.0542H10.0536H10.0529H10.0523H10.0517H10.0511H10.0504H10.0498H10.0492H10.0486H10.0479H10.0473H10.0467H10.046H10.0454H10.0448H10.0441H10.0435H10.0428H10.0422H10.0416H10.0409H10.0403H10.0396H10.039H10.0383H10.0377H10.037H10.0364H10.0357H10.0351H10.0344H10.0338H10.0331H10.0324H10.0318H10.0311H10.0305H10.0298H10.0291H10.0285H10.0278H10.0272H10.0265H10.0258H10.0252H10.0245H10.0238H10.0231H10.0225H10.0218H10.0211H10.0205H10.0198H10.0191H10.0184H10.0177H10.0171H10.0164H10.0157H10.015H10.0143H10.0137H10.013H10.0123H10.0116H10.0109H10.0102H10.0095H10.0088H10.0082H10.0075H10.0068H10.0061H10.0054H10.0047H10.004H10.0033H10.0026H10.0019H10.0012H10.0005H9.99981H9.99911H9.99841H9.99771H9.997H9.9963H9.99559H9.99489H9.99418H9.99348H9.99277H9.99206H9.99135H9.99064H9.98993H9.98922H9.98851H9.98779H9.98708H9.98637H9.98565H9.98494H9.98422H9.9835H9.98279H9.98207H9.98135H9.98063H9.97991H9.97919H9.97847H9.97775H9.97702H9.9763H9.97558H9.97485H9.97413H9.9734H9.97267H9.97195H9.97122H9.97049H9.96976H9.96903H9.9683H9.96757H9.96684H9.96611H9.96538H9.96464H9.96391H9.96318H9.96244H9.96171H9.96097H9.96024H9.9595H9.95876H9.95803H9.95729H9.95655H9.95581H9.95507H9.95433H9.95359H9.95285H9.95211H9.95136H9.95062H9.94988H9.94914H9.94839H9.94765H9.9469H9.94616H9.94541H9.94467H9.94392H9.94317H9.94243H9.94168H9.94093H9.94018H9.93943H9.93868H9.93793H9.93718H9.93643H9.93568H9.93493H9.93418H9.93343H9.93267H9.93192H9.93117H9.93042H9.92966H9.92891H9.92815H9.9274H9.92664H9.92589H9.92513H9.92438H9.92362H9.92287H9.92211H9.92135H9.92059H9.91984H9.91908H9.91832H9.91756H9.9168H9.91604H9.91529H9.91453H9.91377H9.91301H9.91225H9.91149H9.91073H9.90997H9.9092H9.90844H9.90768H9.90692H9.90616H9.9054H9.90463H9.90387H9.90311H9.90235H9.90158H9.90082H9.90006H9.89929H9.89853H9.89777H9.897H9.89624H9.89548H9.89471H9.89395H9.89318H9.89242H9.89165H9.89089H9.89013H9.88936H9.8886H9.88783H9.88707H9.8863H9.88554H9.88477H9.884H9.88324H9.88247H9.88171H9.88094H9.88018H9.87941H9.87865H9.87788H9.87712H9.87635H9.87558H9.87482H9.87405H9.87329H9.87252H9.87176H9.87099H9.87023H9.86946H9.86869H9.86793H9.86716H9.8664H9.86563H9.86487H9.8641H9.86334H9.86257H9.86181H9.86104H9.86028H9.85951H9.85875H9.85799H9.85722H9.85646H9.85569H9.85493H9.85416H9.8534H9.85264H9.85187H9.85111H9.85035H9.84958H9.84882H9.84806H9.8473H9.84653H9.84577H9.84501H9.84425H9.84349H9.84273H9.84196H9.8412H9.84044H9.83968H9.83892H9.83816H9.8374H9.83664H9.83588H9.83512H9.83436H9.83361H9.83285H9.83209H9.83133H9.83057H9.82982H9.82906H9.8283H9.82755H9.82679H9.82603H9.82528H9.82452H9.82377H9.82301H9.82226H9.82151H9.82075H9.82H9.81925H9.81849H9.81774H9.81699H9.81624H9.81549H9.81474H9.81398H9.81323H9.81249H9.81174H9.81099H9.81024H9.80949H9.80874H9.808H9.80725H9.8065H9.80576H9.80501H9.80427H9.80352H9.80278H9.80203H9.80129H9.80055H9.7998H9.79906H9.79832H9.79758H9.79684H9.7961H9.79536H9.79462H9.79388H9.79314H9.79241H9.79167H9.79093H9.7902H9.78946H9.78873H9.78799H9.78726H9.78652H9.78579H9.78506H9.78433H9.7836H9.78287H9.78214H9.78141H9.78068H9.77995H9.77922H9.77849H9.77777H9.77704H9.77632H9.77559H9.77487H9.77415H9.77342H9.7727H9.77198H9.77126H9.77054H9.76982H9.7691H9.76838H9.76766H9.76695H9.76623H9.76552H9.7648H9.76409H9.76337H9.76266H9.76195H9.76124H9.76053H9.75982H9.75911H9.7584H9.75769H9.75699H9.75628H9.75557H9.75487H9.75417H9.75346H9.75276H9.75206H9.75136H9.75066H9.74996H9.74926H9.74856H9.74786H9.74717H9.74647H9.74578H9.74509H9.74439H9.7437H9.74301H9.74232H9.74163H9.74094H9.74025H9.73957H9.73888H9.7382H9.73751H9.73683H9.73615H9.73546H9.73478H9.7341H9.73342H9.73275H9.73207H9.73139H9.73072H9.73004H9.72937H9.7287H9.72802H9.72735H9.72668H9.72601H9.72535H9.72468H9.72401H9.72335H9.72268H9.72202H9.72136H9.7207H9.72004H9.71938H9.71872H9.71806H9.71741H9.71675H9.7161H9.71545H9.71479H9.71414H9.71349H9.71284H9.7122H9.71155H9.7109H9.71026H9.70962H9.70897H9.70833H9.70769H9.70705H9.70641H9.70578H9.70514H9.70451H9.70387H9.70324H9.70261H9.70198H9.70135H9.70072H9.70009H9.69947H9.69884H9.69822H9.6976H9.69697H9.69635H9.69574H9.69512H9.6945H9.69389H9.69327H9.69266C9.68781 7.51042 9.68265 7.5104 9.67719 7.51038C9.51279 7.50987 9.07875 7.50853 8.77051 7.91808C8.76615 7.92387 8.75624 7.93554 8.74202 7.95229C8.6709 8.03605 8.49194 8.24681 8.36036 8.48408C8.18474 8.80077 8.04283 9.22223 8.04283 9.78125C8.04283 10.3629 8.25074 10.9012 8.45207 11.2881C8.6259 11.6222 8.81924 11.889 8.93128 12.0167C9.12376 12.3081 10.3688 14.1638 12.3074 14.976C12.6227 15.1316 12.9405 15.2449 13.1659 15.3252C13.2503 15.3552 13.3216 15.3806 13.3751 15.402ZM13.0927 12.8218C13.0927 12.8218 13.0934 12.8213 13.0946 12.8203C13.0933 12.8214 13.0927 12.8219 13.0927 12.8218Z" fill="white" stroke="white"/>
</svg>
