<svg width="255" height="37" viewBox="0 0 255 37" fill="none" xmlns="http://www.w3.org/2000/svg">
<path fill-rule="evenodd" clip-rule="evenodd" d="M211.956 8.2247C209.726 8.2247 207.935 6.43355 207.935 4.13063C207.935 1.86427 209.762 0 212.029 0C214.295 0 216.159 1.79116 216.159 4.05752C216.159 6.36044 214.295 8.2247 211.956 8.2247ZM135.521 32.2774H128.868V4.27685H135.63V11.9532C135.63 11.9532 138.628 9.39444 142.539 9.39444C149.155 9.39444 153.067 14.9872 153.067 21.0918C153.067 27.3426 149.082 32.8257 142.758 32.8257C139.798 32.8257 137.604 31.985 135.521 29.9379V32.2774ZM114.356 32.8257C107.447 32.8257 102.695 28.622 102.695 21.0918C102.695 14.2927 107.557 9.39444 114.173 9.39444C120.643 9.39444 125.212 13.6713 125.212 21.6767L125.214 21.8712C125.216 21.9847 125.219 22.0878 125.221 22.1862C125.229 22.4608 125.236 22.6995 125.212 23.0292H109.421C110.006 25.6976 112.126 26.977 114.685 26.977C116.787 26.977 118.207 25.5797 119.343 24.1332L119.547 23.8699C119.547 23.8699 122.861 25.7811 124.416 26.7155L124.847 26.977C122.873 30.4862 119.071 32.8257 114.356 32.8257ZM72.7571 32.2774L64.2034 9.83309H71.368L75.8276 22.2615L79.9217 9.83309H85.3683L89.6817 22.3346L94.1048 9.83309H101.16L92.7157 32.2774H86.8305L82.6633 20.2145L78.6423 32.2774H72.7571ZM114.1 15.0969C116.22 15.0969 117.39 16.1204 118.194 18.2771H109.677C110.518 16.1935 111.797 15.0969 114.1 15.0969ZM141.004 15.6818C144.074 15.6818 146.304 18.0943 146.304 20.9456C146.304 24.1258 144.623 26.7943 141.296 26.7943C137.751 26.7943 135.448 24.5644 135.448 21.0918C135.448 17.8385 137.824 15.6818 141.004 15.6818ZM167.762 33.045C160.889 33.045 155.626 27.4157 155.626 21.1649C155.626 14.4389 160.999 9.39444 167.908 9.39444C174.707 9.39444 180.007 14.2927 180.007 21.0552C180.007 27.8909 175.072 33.045 167.762 33.045ZM167.871 15.7914C171.051 15.7914 173.245 18.0578 173.245 20.9456C173.245 24.4548 171.198 26.6115 167.835 26.6115C164.728 26.6115 162.425 24.272 162.425 21.2746C162.425 18.204 164.581 15.7914 167.871 15.7914ZM197.078 32.2774H191.01L181.616 9.83309H189.219L194.117 22.9561L198.723 9.83309H205.888L197.078 32.2774ZM215.392 9.83309H208.593V32.2774H215.392V9.83309ZM219.047 21.1649C219.047 27.4157 224.311 33.045 231.183 33.045C238.494 33.045 243.429 27.8909 243.429 21.0552C243.429 14.2927 238.128 9.39444 231.329 9.39444C224.421 9.39444 219.047 14.4389 219.047 21.1649ZM236.666 20.9456C236.666 18.0578 234.473 15.7914 231.293 15.7914C228.003 15.7914 225.846 18.204 225.846 21.2746C225.846 24.272 228.149 26.6115 231.256 26.6115C234.619 26.6115 236.666 24.4548 236.666 20.9456Z" fill="white"/>
<path d="M250.082 24.1816C252.385 24.1816 254.285 26.0825 254.285 28.3854C254.285 30.6883 252.385 32.5891 250.082 32.5891C247.779 32.5891 245.878 30.6883 245.878 28.3854C245.878 26.0825 247.779 24.1816 250.082 24.1816Z" fill="white"/>
<path fill-rule="evenodd" clip-rule="evenodd" d="M34.6502 34.4841C33.3501 36.6511 30.2095 36.6511 28.9093 34.4841L10.7815 4.27125L46.8656 4.27125C49.4676 4.27125 51.0748 7.10987 49.7361 9.34109L34.6502 34.4841Z" fill="#FFD723"/>
<path fill-rule="evenodd" clip-rule="evenodd" d="M16.1277 34.4841C17.4279 36.6511 20.5685 36.6511 21.8687 34.4841L39.9964 4.27125L3.9124 4.27125C1.31038 4.27125 -0.29682 7.10987 1.04191 9.34109L16.1277 34.4841Z" fill="white"/>
<path fill-rule="evenodd" clip-rule="evenodd" d="M10.7815 4.27124H39.9964L25.39 28.617L10.7815 4.27124Z" fill="#F6F6F6"/>
</svg>
