<svg width="102" height="140" viewBox="0 0 102 140" fill="none" xmlns="http://www.w3.org/2000/svg">
<path d="M75.0838 35.1268C75.0838 31.9467 72.293 29.3684 68.8505 29.3684C65.4079 29.3684 62.6172 31.9464 62.6172 35.1268C62.6172 38.3071 65.4079 40.8851 68.8505 40.8851C72.293 40.8851 75.0838 38.3068 75.0838 35.1268ZM65.8227 37.7389C65.8227 36.985 66.5405 36.3734 67.4256 36.3734C68.3107 36.3734 69.0285 36.9848 69.0285 37.7389C69.0285 38.493 68.3107 39.1045 67.4256 39.1045C66.5405 39.1045 65.8227 38.493 65.8227 37.7389ZM76.6229 83.2477C76.6229 80.1329 73.8322 77.608 70.3897 77.608C66.9471 77.608 64.1564 80.1329 64.1564 83.2477C64.1564 86.3624 66.9471 88.8873 70.3897 88.8873C73.8322 88.8873 76.6229 86.3624 76.6229 83.2477ZM67.3621 85.8595C67.3621 85.1382 68.0799 84.5536 68.965 84.5536C69.8502 84.5536 70.5679 85.1385 70.5679 85.8595C70.5679 86.5806 69.8502 87.1655 68.965 87.1655C68.0796 87.1655 67.3621 86.5806 67.3621 85.8595ZM91.8611 128.707C92.989 124.551 92.1577 120.04 89.2492 115.706C92.5143 111.847 95.0075 107.395 96.9073 102.408C100.172 93.5625 101.419 83.2627 101.419 69.3122C100.232 54.4118 97.9166 43.3403 93.4642 34.1979C91.6833 30.5174 89.5461 27.2523 87.0527 24.4028C89.7835 20.0098 90.4364 15.4387 89.1305 11.224C87.9432 7.30586 85.1531 3.92208 81.532 1.90356C77.9108 -0.114956 73.7551 -0.589644 70.1933 0.775629C66.6315 2.14118 63.8411 5.28735 62.1198 9.97707C56.1239 8.49285 49.7719 7.72121 42.767 7.60254C27.0159 7.17324 5.74656 9.78949 -4.38132e-07 10.0233L-5.88256e-06 134.577C5.26476 134.609 25.0162 135.692 46.8631 133.278C53.1557 132.625 58.9736 131.616 64.435 130.191C66.2755 135 69.303 138.146 73.2208 139.393C76.8422 140.58 80.9383 139.986 84.5595 137.968C88.1213 135.89 90.7927 132.565 91.8613 128.707L91.8611 128.707ZM65.3477 25.213C71.6404 23.9664 77.102 25.3317 81.2577 28.8935C84.9978 32.0993 87.3723 36.967 88.0846 42.2506C88.7376 47.534 87.6693 52.877 84.9382 56.9137C81.9107 61.4254 77.102 64.1562 70.928 64.5125C48.7848 65.8185 43.5014 30.7933 65.3477 25.213ZM33.9248 67.1971C32.8563 67.1378 32.4406 67.0785 31.847 67.0191C29.6505 66.9005 28.8616 66.9089 27.1991 67.087C24.1459 64.2033 23.8405 61.9983 25.882 60.7979C28.3752 59.3733 31.8128 59.0468 34.8324 59.4539L37.275 67.1887C37.275 67.1887 35.2901 67.3158 33.9248 67.1971ZM29.6655 77.2616C28.5376 77.2616 27.5283 77.2022 26.5787 77.0242C25.8661 76.6089 24.5148 75.5296 24.5126 73.5286C24.5104 71.5276 25.6733 70.6846 27.1575 70.0316C28.7604 69.8536 33.6621 70.0434 34.7304 70.1623C36.0957 70.281 36.8312 70.293 37.6028 70.293C37.6028 70.293 36.036 76.5602 35.5138 76.952C34.9915 77.3439 30.6154 77.2624 29.6658 77.2624L29.6655 77.2616ZM38.3463 82.9874C37.0997 81.8594 36.6841 80.7315 36.7434 79.3662C36.8028 78.2976 37.0997 77.5853 38.0494 75.2108C39.0586 72.8363 39.4146 71.53 39.4743 69.9865C39.6523 68.5023 39.2719 66.8873 38.1683 63.7532C36.5255 59.0881 36.6841 56.9856 39.2962 55.561C42.8641 53.5849 47.5967 56.2288 48.6186 60.1581C49.0036 59.9593 49.3842 59.8154 49.8909 59.7679C53.6648 59.6013 56.6196 62.5884 57.3675 67.3817C58.0576 71.8054 56.5767 77.1082 52.4768 78.2227C51.1418 78.5771 49.8881 78.3009 48.8078 77.4401C47.6716 79.763 46.1989 81.7889 44.6392 83.0467C42.502 84.8276 40.3648 84.8872 38.3466 82.9874L38.3463 82.9874ZM60.7726 109.249C57.0921 106.222 54.5986 101.591 53.7083 96.4265C51.8087 85.0879 57.6857 74.8179 69.2027 72.8587L69.262 72.8587C92.5925 71.4338 98.8255 107.053 76.0889 112.336C70.1526 113.761 64.8689 112.574 60.7728 109.249L60.7726 109.249ZM52.0699 76.7098C51.0344 76.984 50.1345 76.6827 49.3194 75.7888C47.1409 73.4001 46.3228 67.4577 47.6678 63.7934C48.0443 62.7669 48.7588 61.5113 50.0268 61.3292C52.3458 61.2433 55.0744 62.8509 55.8193 67.6234C56.6027 72.6489 54.4731 76.0546 52.0699 76.7098Z" fill="#32C79E" fill-opacity="0.3"/>
</svg>
