<svg width="35" height="34" viewBox="0 0 35 34" fill="none" xmlns="http://www.w3.org/2000/svg">
<path d="M17.3618 0C8.01519 0 0.443359 7.57292 0.443359 16.9185C0.443359 26.264 8.01628 33.8369 17.3618 33.8369C26.7084 33.8369 34.2803 26.264 34.2803 16.9185C34.2803 7.57292 26.7074 0 17.3618 0ZM25.6715 11.5908L22.8947 24.6758C22.6895 25.6036 22.1372 25.8285 21.3666 25.3919L17.137 22.2745L15.0969 24.2392C14.8721 24.4641 14.6811 24.6551 14.2445 24.6551L14.5446 20.3502L22.3828 13.2684C22.7244 12.9683 22.3075 12.798 21.8567 13.0982L12.1695 19.1964L7.99445 17.8932C7.0874 17.6072 7.06666 16.9861 8.18546 16.5495L24.497 10.2591C25.2546 9.98626 25.916 10.4436 25.6704 11.5897L25.6715 11.5908Z" fill="white" fill-opacity="0.8"/>
</svg>
