<svg width="36" height="35" viewBox="0 0 36 35" fill="none" xmlns="http://www.w3.org/2000/svg">
<path d="M17.9076 0C8.2586 0 0.443359 7.81524 0.443359 17.4642C0.443359 25.1921 5.44249 31.7194 12.3845 34.0334C13.2577 34.1862 13.5852 33.6623 13.5852 33.2038C13.5852 32.7891 13.5634 31.4138 13.5634 29.9511C9.17547 30.7589 8.04029 28.8814 7.69101 27.8991C7.49454 27.397 6.64316 25.847 5.90093 25.4323C5.28968 25.1048 4.41647 24.2971 5.8791 24.2753C7.2544 24.2534 8.23677 25.5414 8.56422 26.0653C10.136 28.7068 12.6465 27.9646 13.6507 27.5061C13.8035 26.371 14.2619 25.6069 14.764 25.1703C10.8782 24.7337 6.8178 23.2274 6.8178 16.5473C6.8178 14.6481 7.49454 13.0763 8.60788 11.8538C8.43324 11.4172 7.82199 9.62715 8.78252 7.22582C8.78252 7.22582 10.2452 6.76738 13.5852 9.0159C14.9823 8.62296 16.4668 8.42648 17.9512 8.42648C19.4357 8.42648 20.9202 8.62296 22.3173 9.0159C25.6573 6.74555 27.1199 7.22582 27.1199 7.22582C28.0805 9.62715 27.4692 11.4172 27.2946 11.8538C28.4079 13.0763 29.0847 14.6263 29.0847 16.5473C29.0847 23.2492 25.0024 24.7337 21.1166 25.1703C21.7497 25.7161 22.2955 26.7639 22.2955 28.4012C22.2955 30.737 22.2736 32.6144 22.2736 33.2038C22.2736 33.6623 22.6011 34.208 23.4743 34.0334C26.9414 32.8633 29.9543 30.6352 32.0886 27.6628C34.2229 24.6904 35.3712 21.1235 35.3718 17.4642C35.3718 7.81524 27.5566 0 17.9076 0Z" fill="white" fill-opacity="0.8"/>
</svg>
