<svg width="34" height="34" viewBox="0 0 34 34" fill="none" xmlns="http://www.w3.org/2000/svg">
<path fill-rule="evenodd" clip-rule="evenodd" d="M16.9806 33.9611C26.3587 33.9611 33.9611 26.3587 33.9611 16.9806C33.9611 7.60245 26.3587 0 16.9806 0C7.60245 0 0 7.60245 0 16.9806C0 26.3587 7.60245 33.9611 16.9806 33.9611ZM27.6107 10.0213C28.4016 10.0213 28.5688 10.4201 28.4016 10.9639C28.0695 12.4596 24.8784 16.8589 24.8772 16.8578C24.6013 17.2928 24.489 17.5091 24.8772 17.9991C25.0144 18.1865 25.3061 18.4661 25.6398 18.7862C25.9831 19.1154 26.371 19.4875 26.6812 19.8456C27.8066 21.0841 28.6549 22.1307 28.8902 22.8499C29.1053 23.5726 28.7313 23.9386 27.9834 23.9386H25.3647C24.664 23.9386 24.3104 23.5538 23.5468 22.7224C23.2233 22.3703 22.8262 21.938 22.2979 21.4209C20.7436 19.9556 20.077 19.7638 19.6899 19.7638C19.163 19.7638 19.0041 19.9111 19.0041 20.6432V22.9423C19.0041 23.5738 18.7986 23.9398 17.1344 23.9398C14.358 23.9398 11.3103 22.2909 9.14551 19.2492C5.89834 14.7949 5.01068 11.427 5.01068 10.7463C5.01068 10.3675 5.16002 10.0225 5.90909 10.0225H8.52786C9.19689 10.0225 9.44897 10.309 9.69866 11.0188C10.9806 14.6721 13.1406 17.8635 14.0282 17.8635C14.3627 17.8635 14.5145 17.7126 14.5145 16.8858V13.1109C14.4546 12.0347 14.0707 11.5695 13.7866 11.2251C13.6113 11.0127 13.4739 10.8463 13.4739 10.6107C13.4739 10.323 13.7248 10.0213 14.1405 10.0213H18.2574C18.813 10.0213 19.0053 10.3113 19.0053 10.9639V16.0427C19.0053 16.5865 19.2466 16.7759 19.4127 16.7759C19.7448 16.7759 20.0232 16.5865 20.6325 15.9865C22.5201 13.9248 23.8522 10.7452 23.8522 10.7452C24.0194 10.3663 24.3241 10.0213 24.9907 10.0213H27.6107Z" fill="white" fill-opacity="0.8"/>
</svg>
