<svg width="89" height="139" viewBox="0 0 89 139" fill="none" xmlns="http://www.w3.org/2000/svg">
<path d="M62.8463 12.7566C61.3553 11.478 59.5502 10.6205 57.6172 10.2726L-3.50346 0.154975C-5.44853 -0.0784314 -7.42121 0.159785 -9.25481 0.849499C-11.0884 1.53921 -12.7291 2.66016 -14.0381 4.11761L-53.3385 52.0089C-54.5053 53.5757 -55.2813 55.3983 -55.6022 57.3253C-55.9231 59.2522 -55.7796 61.228 -55.1836 63.0883L-33.3634 121.097C-32.6243 122.912 -31.4329 124.507 -29.9028 125.73C-28.4119 127.009 -26.6068 127.866 -24.6738 128.214L36.4469 138.332C38.392 138.565 40.3646 138.327 42.1982 137.637C44.0318 136.947 45.6725 135.826 46.9815 134.369L86.282 86.4777C87.5065 84.9421 88.299 83.1075 88.5777 81.1633C88.9221 79.2347 88.7669 77.25 88.127 75.3983L66.3068 17.3894C65.5677 15.575 64.3764 13.9801 62.8463 12.7566ZM31.7047 109.74C24.6053 112.374 16.9388 113.099 9.4715 111.842C2.00415 110.586 -5.00257 107.391 -10.8485 102.578C-16.6944 97.7647 -21.1747 91.5015 -23.8417 84.4144C-26.5087 77.3272 -27.269 69.6642 -26.0466 62.1911C-24.8242 54.718 -21.6619 47.6966 -16.8758 41.8286C-12.0897 35.9606 -5.84728 31.4514 1.22752 28.7517C8.30231 26.052 15.9617 25.2564 23.4404 26.4443C30.919 27.6322 37.9549 30.7621 43.845 35.5211L37.9419 43.2856L35.9939 45.5801L30.7229 52.326C27.0153 49.0975 22.3303 47.2086 17.4202 46.9628C12.5101 46.717 7.65989 48.1285 3.64843 50.9706C-0.363025 53.8127 -3.30292 57.9205 -4.69913 62.6343C-6.09534 67.3481 -5.86683 72.3944 -4.05031 76.9627C-2.7306 80.53 -0.468966 83.673 2.49421 86.0577C5.45779 88.3852 8.97124 89.9097 12.6956 90.484C16.4199 91.0583 20.2294 90.663 23.7565 89.3363C27.2835 88.0096 30.4091 85.7962 32.8317 82.9098C35.2542 80.0233 36.892 76.5612 37.5869 72.8575L59.2838 76.5651C57.9769 84.0189 54.7444 91.0016 49.9068 96.8209C45.0691 102.64 38.7944 107.094 31.7047 109.74ZM57.8176 56.2678L53.3028 57.966L55.0268 62.5493L50.5804 64.2218L48.8821 59.707L44.7093 61.2766L43.011 56.7617L47.5259 55.0635L45.7761 50.4118L50.2226 48.7393L51.9208 53.2541L56.4357 51.5558L57.8176 56.2678ZM74.7141 49.9121L70.1993 51.6104L71.9233 56.1936L67.4084 57.8919L65.7101 53.3771L61.2637 55.0496L59.5654 50.5347L64.0119 48.8622L62.2621 44.2105L66.777 42.5123L68.4753 47.0271L72.9901 45.3288L74.7141 49.9121Z" fill="#32C79E" fill-opacity="0.3"/>
</svg>
