<svg width="140" height="167" viewBox="0 0 140 167" fill="none" xmlns="http://www.w3.org/2000/svg">
<path d="M87.5189 94.1807L89.9749 86.9915L98.0138 90.2974L95.5578 97.4865L87.5189 94.1807Z" fill="#32C79E" fill-opacity="0.3"/>
<path fill-rule="evenodd" clip-rule="evenodd" d="M87.3247 32.5717L130.41 81.4928L114.209 128.919L52.4307 134.719L9.3476 85.7904L25.5488 38.3637L87.3272 32.5645L87.3247 32.5717ZM69.0831 54.5166C61.9549 51.5848 54.2535 51.3057 47.6732 53.7406C41.0929 56.1755 36.1726 61.125 33.9948 67.5003L33.1667 69.9243C31.7685 74.0209 31.564 78.5307 32.5725 83.0257C33.581 87.5207 35.7691 91.8517 38.9291 95.6077C42.0891 99.3638 46.1163 102.42 50.6283 104.487C55.1404 106.554 59.9877 107.562 64.7102 107.417L68.4538 107.311L67.0457 99.3682L63.3102 99.4774C60.0058 99.5811 56.6136 98.877 53.4555 97.432C50.2975 95.9871 47.4785 93.8492 45.2663 91.2213C43.0541 88.5935 41.5221 85.5629 40.8158 82.4174C40.1094 79.2719 40.2522 76.116 41.2305 73.2491L42.0586 70.8251C43.0383 67.9583 44.8209 65.4761 47.2372 63.614C49.6535 61.7519 52.6234 60.5717 55.8649 60.1855C59.1064 59.7993 62.512 60.2198 65.7586 61.4071C69.0051 62.5945 71.9849 64.5093 74.415 66.9698L77.1623 69.7536L82.9792 64.7903L80.2238 62.0032C77.064 58.7969 73.247 56.2325 69.075 54.5133L69.0831 54.5166ZM88.1394 70.5823L85.675 77.7966L77.6087 74.479L75.1443 81.6933L83.2106 85.0109L80.7461 92.2252L72.6799 88.9075L70.2154 96.1218L78.2817 99.4395L75.8173 106.654L83.8835 109.971L86.348 102.757L94.4142 106.075L91.9498 113.289L100.016 116.607L102.481 109.392L110.547 112.71L113.011 105.496L104.945 102.178L107.409 94.9638L115.476 98.2814L117.94 91.0671L109.874 87.7495L112.338 80.5352L104.272 77.2176L101.808 84.4319L93.7413 81.1142L96.2057 73.9L88.1394 70.5823Z" fill="#32C79E" fill-opacity="0.3"/>
</svg>
