<svg width="35" height="36" viewBox="0 0 35 36" fill="none" xmlns="http://www.w3.org/2000/svg">
<path d="M17.4642 0.961182C7.81524 0.961182 0 8.77642 0 18.4254C0 26.1533 4.99913 32.6806 11.9412 34.9946C12.8144 35.1474 13.1418 34.6235 13.1418 34.165C13.1418 33.7502 13.12 32.3749 13.12 30.9123C8.73211 31.72 7.59693 29.8426 7.24765 28.8603C7.05118 28.3582 6.1998 26.8082 5.45757 26.3934C4.84632 26.066 3.97311 25.2583 5.43574 25.2364C6.81104 25.2146 7.79341 26.5026 8.12086 27.0265C9.69264 29.668 12.2031 28.9258 13.2073 28.4673C13.3601 27.3321 13.8186 26.5681 14.3207 26.1315C10.4349 25.6949 6.37444 24.1886 6.37444 17.5085C6.37444 15.6093 7.05118 14.0375 8.16452 12.815C7.98988 12.3784 7.37863 10.5883 8.33916 8.187C8.33916 8.187 9.80179 7.72857 13.1418 9.97708C14.539 9.58414 16.0234 9.38767 17.5079 9.38767C18.9923 9.38767 20.4768 9.58414 21.8739 9.97708C25.214 7.70674 26.6766 8.187 26.6766 8.187C27.6371 10.5883 27.0259 12.3784 26.8512 12.815C27.9646 14.0375 28.6413 15.5875 28.6413 17.5085C28.6413 24.2104 24.5591 25.6949 20.6733 26.1315C21.3063 26.6772 21.8521 27.7251 21.8521 29.3624C21.8521 31.6982 21.8303 33.5756 21.8303 34.165C21.8303 34.6235 22.1577 35.1692 23.0309 34.9946C26.4981 33.8244 29.5109 31.5963 31.6452 28.624C33.7795 25.6516 34.9278 22.0847 34.9284 18.4254C34.9284 8.77642 27.1132 0.961182 17.4642 0.961182Z" fill="#32C79E"/>
</svg>
