<svg width="113" height="113" viewBox="0 0 113 113" fill="none" xmlns="http://www.w3.org/2000/svg">
<path d="M0 0V113H113V0H0ZM61.4946 88.1325C61.4946 99.1311 55.0461 104.133 45.6369 104.133C37.1469 104.133 32.2163 99.7338 29.7115 94.4303L38.3597 89.1947C40.0284 92.1176 41.5463 94.6187 45.1849 94.6187C48.6729 94.6187 50.8726 93.289 50.8726 87.9517V51.867H61.4946V88.1325ZM86.6032 104.133C76.7421 104.133 70.3689 99.4325 67.2614 93.2853L75.9059 88.2869C78.1809 91.9707 81.1415 94.7279 86.3772 94.7279C90.7729 94.7279 93.5452 92.5282 93.5452 89.4696C93.5452 85.831 90.6599 84.5353 85.8084 82.4448L83.1718 81.2771C75.5104 78.019 70.4291 73.9208 70.4291 65.2688C70.4291 57.3098 76.4709 51.238 85.9779 51.238C92.7278 51.238 97.5793 53.5921 101.075 59.728L92.8257 65.0202C91.0177 61.7809 89.0365 60.4625 86.0005 60.4625C82.8968 60.4625 80.908 62.4287 80.908 65.0202C80.908 68.2294 82.8667 69.495 87.4243 71.4612L90.0723 72.6289C99.101 76.4709 104.186 80.4259 104.186 89.3152C104.212 98.8976 96.7054 104.118 86.6145 104.118L86.6032 104.133Z" fill="#32C79E" fill-opacity="0.3"/>
</svg>
