<svg width="150" height="222" viewBox="0 0 150 222" fill="none" xmlns="http://www.w3.org/2000/svg">
<path d="M118.733 74.9906C77.8753 47.9369 35.7967 42.6255 22.9353 62.9001C10.0739 83.1748 32.0047 120.247 72.8622 147.301C113.72 174.354 155.798 179.666 168.66 159.391C181.521 139.117 159.59 102.044 118.733 74.9906ZM104.11 81.1058L112.064 86.3726L102.482 95.8247L109.586 100.529C114.091 103.512 116.748 106.092 117.558 108.675C118.337 111.213 117.365 113.886 114.673 116.622L103.086 127.82L94.9979 122.464L105.701 112.103C107.122 110.651 107.727 109.385 107.499 108.357C107.278 107.334 106.118 106.131 104.09 104.788L97.7204 100.571L83.2914 114.713L75.3251 109.438L104.11 81.1058ZM62.1158 69.0967L78.3034 79.8152C86.0207 84.9252 87.6898 92.7601 81.3774 98.6196C74.0406 105.428 66.946 103.89 56.4781 96.9585L51.4749 93.6456L44.5974 100.94L36.5522 95.6126L62.1158 69.0967ZM125.87 111.312L142.058 122.03C149.775 127.14 151.444 134.975 145.132 140.834C137.795 147.643 130.694 146.101 120.233 139.173L115.229 135.861L108.352 143.155L100.307 137.828L125.87 111.312ZM65.4789 79.2222L56.1328 88.8311L61.3242 92.2686C65.8174 95.2438 70.2912 97.5426 74.8849 91.8642C76.6527 89.6619 76.9304 86.8048 71.739 83.3673L65.4789 79.2222ZM129.233 121.437L119.887 131.046L125.079 134.483C129.572 137.459 134.046 139.757 138.639 134.079C140.407 131.877 140.691 129.024 135.493 125.582L129.233 121.437Z" fill="#32C79E" fill-opacity="0.3"/>
</svg>
