<svg width="123" height="158" viewBox="0 0 123 158" fill="none" xmlns="http://www.w3.org/2000/svg">
<path d="M84.9997 40.4888C63.6353 26.9398 59.9647 36.1937 59.9647 36.1937L54.8057 44.9222L75.1885 57.8487L73.6326 60.4639L45.1619 42.4082C45.1619 42.4082 32.3275 32.3283 20.687 51.8944C9.04654 71.4606 21.3912 78.3301 21.3912 78.3301L28.508 82.8435L33.9082 73.7664C33.9082 73.7664 39.9679 62.6962 52.0945 70.3867L72.309 83.2065C72.309 83.2065 83.5699 90.5747 89.5973 80.4433L99.5651 63.6886C99.5651 63.6886 107.318 54.6426 84.9962 40.4866L84.9997 40.4888ZM70.2754 39.218C72.3018 40.5031 73.0572 43.0317 71.961 44.8743C70.8667 46.7138 68.3407 47.1613 66.3143 45.8762C64.2844 44.5889 63.5325 42.0626 64.6269 40.2231C65.7231 38.3804 68.2456 37.9307 70.2754 39.218Z" fill="#32C79E" fill-opacity="0.3"/>
<path d="M38.3186 116.828C59.676 130.373 63.3466 121.119 63.3466 121.119L68.5056 112.39L48.1228 99.464L49.6787 96.8488L78.1564 114.909C78.1564 114.909 90.9909 124.989 102.631 105.423C114.272 85.8566 101.924 78.9849 101.924 78.9849L94.8068 74.4715L89.4066 83.5485C89.4066 83.5485 83.347 94.6188 71.2204 86.9282L51.0093 74.1107C51.0093 74.1107 39.7484 66.7425 33.721 76.8738L23.7532 93.6285C23.7532 93.6285 15.9971 102.672 38.3186 116.828ZM53.0429 118.099C51.013 116.812 50.2611 114.285 51.3573 112.443C52.4517 110.603 54.9742 110.154 57.004 111.441C59.0304 112.726 59.7858 115.255 58.6915 117.094C57.5952 118.937 55.0692 119.384 53.0429 118.099Z" fill="#32C79E" fill-opacity="0.3"/>
</svg>
