<svg width="523" height="1057" viewBox="0 0 523 1057" fill="none" xmlns="http://www.w3.org/2000/svg">
<path fill-rule="evenodd" clip-rule="evenodd" d="M389.098 408.178C365.946 514.299 350.391 622.756 279.663 707.732C209.166 792.432 99.0688 826.45 -1.34477 877.277C-135.034 944.948 -254.153 1077.41 -403.97 1053.77C-555.866 1029.81 -625.924 1034.32 -702.683 907.573C-775.405 787.496 -856.836 499.221 -820.882 365.377C-787.506 241.136 -626.797 196.971 -553.156 89.5703C-467.629 -35.1644 -507.403 -253.053 -360.632 -305.866C-217.238 -357.463 333.946 -244.569 475 -186.5C604.118 -133.344 423.117 -195.73 496 -81.5C569 32.9135 417.598 277.546 389.098 408.178Z" fill="#32C79E"/>
</svg>
