<svg width="35" height="34" viewBox="0 0 35 34" fill="none" xmlns="http://www.w3.org/2000/svg">
<path d="M17.4752 0.027832C8.12859 0.027832 0.556763 7.60075 0.556763 16.9463C0.556763 26.2918 8.12968 33.8647 17.4752 33.8647C26.8219 33.8647 34.3937 26.2918 34.3937 16.9463C34.3937 7.60075 26.8208 0.027832 17.4752 0.027832ZM25.7849 11.6186L23.0081 24.7037C22.8029 25.6315 22.2506 25.8563 21.48 25.4197L17.2504 22.3023L15.2103 24.2671C14.9855 24.4919 14.7945 24.6829 14.3579 24.6829L14.658 20.378L22.4962 13.2963C22.8378 12.9961 22.4209 12.8258 21.9701 13.126L12.2829 19.2243L8.10785 17.921C7.20081 17.635 7.18007 17.014 8.29887 16.5774L24.6104 10.287C25.368 10.0141 26.0294 10.4714 25.7838 11.6175L25.7849 11.6186Z" fill="#32C79E"/>
</svg>
