<svg width="91" height="127" viewBox="0 0 91 127" fill="none" xmlns="http://www.w3.org/2000/svg">
<path d="M-7.68123 53.3568C6.12624 80.0371 34.7605 62.9215 44.3063 81.3671L44.3579 81.4668C45.4591 83.5947 48.0724 84.4291 50.1951 83.3306L66.3299 74.9805C68.4527 73.882 69.2806 71.2667 68.1794 69.1388L67.6163 68.0508C52.8714 39.559 27.8515 54.8041 20.9477 41.464C17.9647 35.6998 20.4463 30.0306 27.5107 26.3747C33.2577 23.4005 40.4343 22.8804 48.4375 25.2663C50.4885 25.8776 52.6709 24.8538 53.5593 22.9075L59.8646 9.0959C60.9274 6.76827 59.7597 4.00382 57.3333 3.18819C43.7364 -1.38233 29.388 -0.905697 14.1429 6.98389C-10.0069 19.4821 -15.2667 38.6993 -7.68123 53.3568ZM58.5782 116.994C62.8398 125.229 72.9056 128.58 81.284 124.244C89.4985 119.993 92.7398 109.755 88.4782 101.52C84.2167 93.2857 73.9867 90.0193 65.7722 94.2704C57.3935 98.6065 54.3167 108.759 58.5782 116.994Z" fill="#32C79E" fill-opacity="0.3"/>
</svg>
