<svg width="35" height="34" viewBox="0 0 35 34" fill="none" xmlns="http://www.w3.org/2000/svg">
<path fill-rule="evenodd" clip-rule="evenodd" d="M17.5373 33.9611C26.9154 33.9611 34.5179 26.3587 34.5179 16.9806C34.5179 7.60245 26.9154 0 17.5373 0C8.15922 0 0.556763 7.60245 0.556763 16.9806C0.556763 26.3587 8.15922 33.9611 17.5373 33.9611ZM28.1675 10.0213C28.9583 10.0213 29.1256 10.4201 28.9583 10.9639C28.6262 12.4596 25.4352 16.8589 25.434 16.8578C25.158 17.2928 25.0457 17.5091 25.434 17.9991C25.5712 18.1865 25.8628 18.4661 26.1966 18.7862C26.5399 19.1154 26.9278 19.4875 27.238 19.8456C28.3634 21.0841 29.2116 22.1307 29.447 22.8499C29.662 23.5726 29.2881 23.9386 28.5402 23.9386H25.9214C25.2207 23.9386 24.8672 23.5538 24.1036 22.7224C23.78 22.3703 23.3829 21.938 22.8547 21.4209C21.3004 19.9556 20.6337 19.7638 20.2466 19.7638C19.7198 19.7638 19.5609 19.9111 19.5609 20.6432V22.9423C19.5609 23.5738 19.3554 23.9398 17.6912 23.9398C14.9147 23.9398 11.8671 22.2909 9.70228 19.2492C6.4551 14.7949 5.56744 11.427 5.56744 10.7463C5.56744 10.3675 5.71678 10.0225 6.46585 10.0225H9.08462C9.75365 10.0225 10.0057 10.309 10.2554 11.0188C11.5373 14.6721 13.6973 17.8635 14.585 17.8635C14.9195 17.8635 15.0712 17.7126 15.0712 16.8858V13.1109C15.0114 12.0347 14.6275 11.5695 14.3433 11.2251C14.168 11.0127 14.0307 10.8463 14.0307 10.6107C14.0307 10.323 14.2815 10.0213 14.6973 10.0213H18.8142C19.3697 10.0213 19.5621 10.3113 19.5621 10.9639V16.0427C19.5621 16.5865 19.8034 16.7759 19.9695 16.7759C20.3016 16.7759 20.58 16.5865 21.1893 15.9865C23.0769 13.9248 24.409 10.7452 24.409 10.7452C24.5762 10.3663 24.8809 10.0213 25.5475 10.0213H28.1675Z" fill="#32C79E"/>
</svg>
