<svg width="18" height="18" viewBox="0 0 18 18" fill="none" xmlns="http://www.w3.org/2000/svg">
<path d="M7.728 4.2H10.332L9.898 10.598H8.162L7.728 4.2ZM9.03 14.112C8.64733 14.112 8.32533 13.9907 8.064 13.748C7.812 13.496 7.686 13.1927 7.686 12.838C7.686 12.4833 7.812 12.1893 8.064 11.956C8.316 11.7133 8.638 11.592 9.03 11.592C9.422 11.592 9.744 11.7133 9.996 11.956C10.248 12.1893 10.374 12.4833 10.374 12.838C10.374 13.1927 10.2433 13.496 9.982 13.748C9.73 13.9907 9.41267 14.112 9.03 14.112Z" fill="#FFB800"/>
<rect x="1.5" y="1.5" width="15" height="15" rx="3.5" stroke="#FFB800" stroke-width="3"/>
</svg>
