<svg width="31" height="30" viewBox="0 0 31 30" fill="none" xmlns="http://www.w3.org/2000/svg">
<circle cx="15.2639" cy="15" r="15" fill="#7C509A"/>
<rect x="0.263916" width="30" height="30" rx="2" fill="#7C509A"/>
<path d="M19.9544 7.90944C17.0957 7.36352 14.1271 7.36352 11.2685 7.90944C10.0041 8.18239 8.40986 9.71095 8.13499 10.912C7.64022 13.2594 7.64022 15.6614 8.13499 18.0088C8.46483 19.2098 10.0591 20.7384 11.2685 21.0114C11.3235 21.0114 11.3784 21.066 11.3784 21.1205V24.5598C11.3784 24.7236 11.5983 24.8328 11.7083 24.669L13.3575 22.9767C13.3575 22.9767 14.6769 21.6119 14.8968 21.3935C14.8968 21.3935 14.9517 21.3389 15.0067 21.3389C16.6559 21.3935 18.3601 21.2297 20.0093 20.9568C21.2737 20.6838 22.868 19.1553 23.1428 17.9542C23.6376 15.6068 23.6376 13.2048 23.1428 10.8574C22.813 9.71095 21.2188 8.18239 19.9544 7.90944ZM20.0093 18.1726C19.7345 18.7185 19.4046 19.1553 18.8549 19.4282C18.69 19.4828 18.525 19.5374 18.3601 19.592C18.1402 19.5374 17.9753 19.4828 17.8104 19.4282C16.0512 18.7185 14.402 17.7359 13.0826 16.3165C12.368 15.4976 11.7633 14.5696 11.2685 13.5869C11.0486 13.0956 10.8287 12.6589 10.6638 12.1676C10.4989 11.7308 10.7737 11.2941 11.0486 10.9666C11.3235 10.639 11.6533 10.4206 12.0381 10.2569C12.313 10.0931 12.5879 10.2023 12.8078 10.4206C13.2476 10.9666 13.6873 11.5125 14.0172 12.113C14.2371 12.4951 14.1821 12.9318 13.7973 13.2048C13.6873 13.2594 13.6324 13.314 13.5224 13.4232C13.4674 13.4778 13.3575 13.5323 13.3025 13.6415C13.1926 13.8053 13.1926 13.9691 13.2476 14.1329C13.6873 15.3885 14.512 16.3711 15.7763 16.917C15.9962 17.0262 16.1612 17.0808 16.436 17.0808C16.8209 17.0262 16.9858 16.5895 17.2606 16.3711C17.5355 16.1527 17.8654 16.1527 18.1952 16.3165C18.4701 16.4803 18.7449 16.6986 19.0748 16.917C19.3496 17.1354 19.6245 17.2992 19.8994 17.5175C20.0643 17.6267 20.1193 17.8997 20.0093 18.1726ZM17.7004 14.0783C17.5905 14.0783 17.6455 14.0783 17.7004 14.0783C17.4805 14.0783 17.4256 13.9691 17.3706 13.8053C17.3706 13.6961 17.3706 13.5323 17.3156 13.4232C17.2606 13.2048 17.1507 12.9864 16.9308 12.8227C16.8209 12.7681 16.7109 12.7135 16.601 12.6589C16.436 12.6043 16.3261 12.6043 16.1612 12.6043C15.9962 12.5497 15.9413 12.4405 15.9413 12.2767C15.9413 12.1676 16.1062 12.0584 16.2161 12.0584C17.0957 12.113 17.7554 12.6043 17.8654 13.6415C17.8654 13.6961 17.8654 13.8053 17.8654 13.8599C17.8654 13.9691 17.8104 14.0783 17.7004 14.0783ZM17.1507 11.6762C16.8758 11.5671 16.601 11.4579 16.2711 11.4033C16.1612 11.4033 15.9962 11.3487 15.8863 11.3487C15.7214 11.3487 15.6114 11.2395 15.6664 11.0757C15.6664 10.912 15.7764 10.8028 15.9413 10.8574C16.491 10.912 16.9858 11.0211 17.4805 11.2395C18.4701 11.7308 19.0198 12.5497 19.1847 13.6415C19.1847 13.6961 19.1847 13.7507 19.1847 13.8053C19.1847 13.9145 19.1847 14.0237 19.1847 14.1874C19.1847 14.242 19.1847 14.2966 19.1847 14.3512C19.1298 14.5696 18.7449 14.6242 18.69 14.3512C18.69 14.2966 18.635 14.1874 18.635 14.1329C18.635 13.6415 18.525 13.1502 18.3051 12.7135C17.9753 12.2222 17.5905 11.8946 17.1507 11.6762ZM20.1193 14.9517C19.9544 14.9517 19.8444 14.7879 19.8444 14.6242C19.8444 14.2966 19.7894 13.9691 19.7345 13.6415C19.5146 11.8946 18.0853 10.4752 16.3811 10.2023C16.1062 10.1477 15.8313 10.1477 15.6114 10.0931C15.4465 10.0931 15.2266 10.0931 15.1716 9.87472C15.1167 9.71095 15.2816 9.54718 15.4465 9.54718C15.5015 9.54718 15.5565 9.54718 15.5565 9.54718C17.8104 9.60177 15.6664 9.54718 15.5565 9.54718C17.8654 9.60177 19.7894 11.1303 20.1743 13.4232C20.2292 13.8053 20.2842 14.1874 20.2842 14.6242C20.3942 14.7879 20.2842 14.9517 20.1193 14.9517Z" fill="white"/>
</svg>
