<svg width="31" height="30" viewBox="0 0 31 30" fill="none" xmlns="http://www.w3.org/2000/svg">
<circle cx="15.2639" cy="15" r="15" fill="#48C95F"/>
<circle cx="15.2639" cy="15" r="15" fill="#171500"/>
<rect x="0.263916" width="30" height="30" rx="2" fill="#48C95F"/>
<path d="M21.209 9.04785C19.7273 7.57129 17.7517 6.75098 15.6664 6.75098C11.331 6.75098 7.81879 10.251 7.81879 14.5713C7.81879 15.9385 8.20294 17.3057 8.86148 18.4541L7.76392 22.501L11.9346 21.4072C13.0871 22.0088 14.3493 22.3369 15.6664 22.3369C20.0017 22.3369 23.5139 18.8369 23.5139 14.5166C23.459 12.4932 22.6907 10.5244 21.209 9.04785ZM19.4529 17.3604C19.2883 17.7979 18.52 18.2354 18.1359 18.29C17.8066 18.3447 17.3676 18.3447 16.9286 18.2354C16.6542 18.126 16.27 18.0166 15.831 17.7979C13.8554 16.9775 12.5932 15.0088 12.4834 14.8447C12.3737 14.7354 11.6603 13.8057 11.6603 12.8213C11.6603 11.8369 12.1542 11.3994 12.3188 11.1807C12.4834 10.9619 12.7029 10.9619 12.8676 10.9619C12.9773 10.9619 13.142 10.9619 13.2517 10.9619C13.3615 10.9619 13.5261 10.9072 13.6907 11.29C13.8554 11.6729 14.2395 12.6572 14.2944 12.7119C14.3493 12.8213 14.3493 12.9307 14.2944 13.04C14.2395 13.1494 14.1846 13.2588 14.0749 13.3682C13.9651 13.4775 13.8554 13.6416 13.8005 13.6963C13.6907 13.8057 13.581 13.915 13.6907 14.0791C13.8005 14.2979 14.1846 14.8994 14.7883 15.4463C15.5566 16.1025 16.1603 16.3213 16.3798 16.4307C16.5993 16.54 16.709 16.4854 16.8188 16.376C16.9285 16.2666 17.3127 15.8291 17.4225 15.6104C17.5322 15.3916 17.6968 15.4463 17.8615 15.501C18.0261 15.5557 19.0139 16.0479 19.1785 16.1572C19.3981 16.2666 19.5078 16.3213 19.5627 16.376C19.6176 16.54 19.6176 16.9229 19.4529 17.3604Z" fill="white"/>
</svg>
