<svg width="1920" height="292" viewBox="0 0 1920 292" fill="none" xmlns="http://www.w3.org/2000/svg">
<g opacity="0.6" clip-path="url(#clip0_611_1025)">
<rect x="1725.59" y="-667.828" width="60" height="2098.12" transform="rotate(44.8135 1725.59 -667.828)" fill="#FCB026"/>
<rect x="1810.72" y="-583.253" width="60" height="2098.12" transform="rotate(44.8135 1810.72 -583.253)" fill="#FCB026"/>
<rect x="874.303" y="-1513.59" width="60" height="2098.12" transform="rotate(44.8135 874.303 -1513.59)" fill="#FCB026"/>
<rect x="1895.85" y="-498.677" width="60" height="2098.12" transform="rotate(44.8135 1895.85 -498.677)" fill="#FCB026"/>
<rect x="959.432" y="-1429.02" width="60" height="2098.12" transform="rotate(44.8135 959.432 -1429.02)" fill="#FCB026"/>
<rect x="1980.97" y="-414.101" width="60" height="2098.12" transform="rotate(44.8135 1980.97 -414.101)" fill="#FCB026"/>
<rect x="1044.56" y="-1344.44" width="60" height="2098.12" transform="rotate(44.8135 1044.56 -1344.44)" fill="#FCB026"/>
<rect x="2066.1" y="-329.524" width="60" height="2098.12" transform="rotate(44.8135 2066.1 -329.524)" fill="#FCB026"/>
<rect x="1129.69" y="-1259.86" width="60" height="2098.12" transform="rotate(44.8135 1129.69 -1259.86)" fill="#FCB026"/>
<rect x="2151.23" y="-244.948" width="60" height="2098.12" transform="rotate(44.8135 2151.23 -244.948)" fill="#FCB026"/>
<rect x="1214.82" y="-1175.29" width="60" height="2098.12" transform="rotate(44.8135 1214.82 -1175.29)" fill="#FCB026"/>
<rect x="2236.36" y="-160.37" width="60" height="2098.12" transform="rotate(44.8135 2236.36 -160.37)" fill="#FCB026"/>
<rect x="1299.95" y="-1090.71" width="60" height="2098.12" transform="rotate(44.8135 1299.95 -1090.71)" fill="#FCB026"/>
<rect x="2321.49" y="-75.7949" width="60" height="2098.12" transform="rotate(44.8135 2321.49 -75.7949)" fill="#FCB026"/>
<rect x="1385.07" y="-1006.13" width="60" height="2098.12" transform="rotate(44.8135 1385.07 -1006.13)" fill="#FCB026"/>
<rect x="2406.62" y="8.7793" width="60" height="2098.12" transform="rotate(44.8135 2406.62 8.7793)" fill="#FCB026"/>
<rect x="1470.2" y="-921.558" width="60" height="2098.12" transform="rotate(44.8135 1470.2 -921.558)" fill="#FCB026"/>
<rect x="2491.74" y="93.3564" width="60" height="2098.12" transform="rotate(44.8135 2491.74 93.3564)" fill="#FCB026"/>
<rect x="1555.33" y="-836.981" width="60" height="2098.12" transform="rotate(44.8135 1555.33 -836.981)" fill="#FCB026"/>
<rect x="2576.87" y="177.935" width="60" height="2098.12" transform="rotate(44.8135 2576.87 177.935)" fill="#FCB026"/>
<rect x="1640.46" y="-752.405" width="60" height="2098.12" transform="rotate(44.8135 1640.46 -752.405)" fill="#FCB026"/>
<rect x="2662" y="262.51" width="60" height="2098.12" transform="rotate(44.8135 2662 262.51)" fill="#FCB026"/>
<rect x="1683.02" y="-710.116" width="60" height="2098.12" transform="rotate(44.8135 1683.02 -710.116)" fill="#171500"/>
<rect x="1853.28" y="-540.965" width="60" height="2098.12" transform="rotate(44.8135 1853.28 -540.965)" fill="#171500"/>
<rect x="916.868" y="-1471.3" width="60" height="2098.12" transform="rotate(44.8135 916.868 -1471.3)" fill="#171500"/>
<rect x="1938.41" y="-456.389" width="60" height="2098.12" transform="rotate(44.8135 1938.41 -456.389)" fill="#171500"/>
<rect x="1002" y="-1386.73" width="60" height="2098.12" transform="rotate(44.8135 1002 -1386.73)" fill="#171500"/>
<rect x="2023.54" y="-371.812" width="60" height="2098.12" transform="rotate(44.8135 2023.54 -371.812)" fill="#171500"/>
<rect x="1087.12" y="-1302.15" width="60" height="2098.12" transform="rotate(44.8135 1087.12 -1302.15)" fill="#171500"/>
<rect x="2108.67" y="-287.236" width="60" height="2098.12" transform="rotate(44.8135 2108.67 -287.236)" fill="#171500"/>
<rect x="1172.25" y="-1217.57" width="60" height="2098.12" transform="rotate(44.8135 1172.25 -1217.57)" fill="#171500"/>
<rect x="2193.79" y="-202.659" width="60" height="2098.12" transform="rotate(44.8135 2193.79 -202.659)" fill="#171500"/>
<rect x="1257.38" y="-1133" width="60" height="2098.12" transform="rotate(44.8135 1257.38 -1133)" fill="#171500"/>
<rect x="2278.92" y="-118.085" width="60" height="2098.12" transform="rotate(44.8135 2278.92 -118.085)" fill="#171500"/>
<rect x="1342.51" y="-1048.42" width="60" height="2098.12" transform="rotate(44.8135 1342.51 -1048.42)" fill="#171500"/>
<rect x="2364.05" y="-33.5078" width="60" height="2098.12" transform="rotate(44.8135 2364.05 -33.5078)" fill="#171500"/>
<rect x="1427.64" y="-963.847" width="60" height="2098.12" transform="rotate(44.8135 1427.64 -963.847)" fill="#171500"/>
<rect x="2449.18" y="51.0674" width="60" height="2098.12" transform="rotate(44.8135 2449.18 51.0674)" fill="#171500"/>
<rect x="1512.77" y="-879.27" width="60" height="2098.12" transform="rotate(44.8135 1512.77 -879.27)" fill="#171500"/>
<rect x="2534.31" y="135.645" width="60" height="2098.12" transform="rotate(44.8135 2534.31 135.645)" fill="#171500"/>
<rect x="1597.9" y="-794.693" width="60" height="2098.12" transform="rotate(44.8135 1597.9 -794.693)" fill="#171500"/>
<rect x="2619.44" y="220.222" width="60" height="2098.12" transform="rotate(44.8135 2619.44 220.222)" fill="#171500"/>
<rect x="1768.15" y="-625.542" width="60" height="2098.12" transform="rotate(44.8135 1768.15 -625.542)" fill="#171500"/>
</g>
<defs>
<clipPath id="clip0_611_1025">
<rect width="1949.97" height="291.44" fill="white" transform="translate(-13.493 6.7334) rotate(-0.186454)"/>
</clipPath>
</defs>
</svg>
